<svg width="378" height="314" viewBox="0 0 378 314" fill="none" xmlns="http://www.w3.org/2000/svg">
<g clip-path="url(#clip0_14_3768)">
<rect width="378" height="314" rx="30" fill="#99D100"/>
<rect x="0.202599" y="0.28958" width="105.961" height="141.448" rx="18.775" transform="matrix(0.984808 0.173648 -0.174411 0.984673 -47.838 -107.012)" fill="#BCEC30"/>
<rect x="0.202599" y="0.28958" width="105.961" height="141.448" rx="18.775" transform="matrix(0.984808 0.173648 -0.174411 0.984673 -47.838 -107.012)" stroke="#202027" stroke-width="0.5"/>
<rect x="0.202599" y="0.28958" width="105.961" height="141.448" rx="18.775" transform="matrix(0.984808 0.173648 -0.174411 0.984673 63.16 -87.4398)" fill="#BCEC30"/>
<rect x="0.202599" y="0.28958" width="105.961" height="141.448" rx="18.775" transform="matrix(0.984808 0.173648 -0.174411 0.984673 63.16 -87.4398)" stroke="#202027" stroke-width="0.5"/>
<mask id="path-5-outside-1_14_3768" maskUnits="userSpaceOnUse" x="84.0792" y="-28.7821" width="35.9974" height="41.6423" fill="black">
<rect fill="white" x="84.0792" y="-28.7821" width="35.9974" height="41.6423"/>
<path d="M98.0188 -3.6242C98.3043 -5.23627 98.8932 -6.49562 99.7853 -7.40226C100.683 -8.34114 101.921 -9.31988 103.498 -10.3385C104.587 -11.0441 105.409 -11.6473 105.963 -12.1481C106.523 -12.681 106.863 -13.2861 106.983 -13.9631C107.148 -14.8981 106.877 -15.7108 106.168 -16.401C105.497 -17.1178 104.532 -17.5871 103.275 -17.8088C101.985 -18.0363 100.754 -17.9375 99.5809 -17.5126C98.4406 -17.0819 97.4508 -16.3754 96.6117 -15.3929L90.0901 -20.5326C91.8119 -22.5564 93.9934 -23.9838 96.6346 -24.8148C99.2757 -25.6457 102.305 -25.7599 105.723 -25.1572C109.561 -24.4806 112.497 -23.1315 114.534 -21.1101C116.608 -19.1152 117.391 -16.683 116.882 -13.8135C116.648 -12.4916 116.214 -11.3546 115.58 -10.4025C114.951 -9.4826 114.252 -8.72486 113.481 -8.12926C112.749 -7.56022 111.805 -6.92857 110.652 -6.23432C109.39 -5.49263 108.441 -4.82874 107.805 -4.24264C107.175 -3.68879 106.783 -2.9766 106.628 -2.10608L98.0188 -3.6242ZM100.062 9.90247C98.4821 9.62386 97.2618 8.90996 96.4012 7.76078C95.5464 6.57935 95.2446 5.27932 95.4959 3.8607C95.7529 2.40983 96.464 1.30503 97.6292 0.546288C98.8267 -0.206768 100.232 -0.44115 101.844 -0.15686C103.456 0.127431 104.695 0.82805 105.562 1.945C106.428 3.06195 106.733 4.34585 106.476 5.79672C106.224 7.21534 105.494 8.33342 104.285 9.15096C103.082 9.93625 101.674 10.1868 100.062 9.90247Z"/>
</mask>
<path d="M98.0188 -3.6242C98.3043 -5.23627 98.8932 -6.49562 99.7853 -7.40226C100.683 -8.34114 101.921 -9.31988 103.498 -10.3385C104.587 -11.0441 105.409 -11.6473 105.963 -12.1481C106.523 -12.681 106.863 -13.2861 106.983 -13.9631C107.148 -14.8981 106.877 -15.7108 106.168 -16.401C105.497 -17.1178 104.532 -17.5871 103.275 -17.8088C101.985 -18.0363 100.754 -17.9375 99.5809 -17.5126C98.4406 -17.0819 97.4508 -16.3754 96.6117 -15.3929L90.0901 -20.5326C91.8119 -22.5564 93.9934 -23.9838 96.6346 -24.8148C99.2757 -25.6457 102.305 -25.7599 105.723 -25.1572C109.561 -24.4806 112.497 -23.1315 114.534 -21.1101C116.608 -19.1152 117.391 -16.683 116.882 -13.8135C116.648 -12.4916 116.214 -11.3546 115.58 -10.4025C114.951 -9.4826 114.252 -8.72486 113.481 -8.12926C112.749 -7.56022 111.805 -6.92857 110.652 -6.23432C109.39 -5.49263 108.441 -4.82874 107.805 -4.24264C107.175 -3.68879 106.783 -2.9766 106.628 -2.10608L98.0188 -3.6242ZM100.062 9.90247C98.4821 9.62386 97.2618 8.90996 96.4012 7.76078C95.5464 6.57935 95.2446 5.27932 95.4959 3.8607C95.7529 2.40983 96.464 1.30503 97.6292 0.546288C98.8267 -0.206768 100.232 -0.44115 101.844 -0.15686C103.456 0.127431 104.695 0.82805 105.562 1.945C106.428 3.06195 106.733 4.34585 106.476 5.79672C106.224 7.21534 105.494 8.33342 104.285 9.15096C103.082 9.93625 101.674 10.1868 100.062 9.90247Z" fill="white"/>
<path d="M98.0188 -3.6242L97.5149 -3.71304L97.4257 -3.20926L97.9295 -3.12042L98.0188 -3.6242ZM99.7853 -7.40226L100.15 -7.04361L100.155 -7.0489L99.7853 -7.40226ZM103.498 -10.3385L103.775 -9.90888L103.776 -9.90925L103.498 -10.3385ZM105.963 -12.1481L106.306 -11.7685L106.316 -11.7777L105.963 -12.1481ZM106.168 -16.401L105.794 -16.0513L105.802 -16.0427L105.811 -16.0344L106.168 -16.401ZM99.5809 -17.5126L99.4068 -17.9935L99.4004 -17.9911L99.5809 -17.5126ZM96.6117 -15.3929L96.2948 -14.991L96.6811 -14.6866L97.0008 -15.0609L96.6117 -15.3929ZM90.0901 -20.5326L89.7004 -20.8639L89.3563 -20.4593L89.7731 -20.1308L90.0901 -20.5326ZM96.6346 -24.8148L96.7879 -24.3268L96.7879 -24.3268L96.6346 -24.8148ZM114.534 -21.1101L114.173 -20.7469L114.179 -20.7413L114.534 -21.1101ZM115.58 -10.4025L116.002 -10.1141L116.006 -10.1192L115.58 -10.4025ZM113.481 -8.12926L113.168 -8.53387L113.168 -8.53313L113.481 -8.12926ZM110.652 -6.23432L110.911 -5.79335L110.915 -5.79608L110.652 -6.23432ZM107.805 -4.24265L108.143 -3.85846L108.152 -3.86667L107.805 -4.24265ZM106.628 -2.10608L106.539 -1.60231L107.043 -1.51347L107.132 -2.01724L106.628 -2.10608ZM96.4012 7.76078L95.9865 8.06083L95.9915 8.06753L96.4012 7.76078ZM97.6292 0.546289L97.357 0.113287L97.3502 0.117704L97.6292 0.546289ZM105.562 1.945L105.157 2.25863L105.562 1.945ZM104.285 9.15096L104.565 9.5793L104.572 9.5746L104.285 9.15096ZM98.5226 -3.53536C98.7953 -5.07468 99.3487 -6.22943 100.15 -7.04365L99.4207 -7.76087C98.4376 -6.76181 97.8134 -5.39785 97.5149 -3.71304L98.5226 -3.53536ZM100.155 -7.0489C101.016 -7.94917 102.218 -8.90328 103.775 -9.90888L103.22 -10.7681C101.623 -9.73649 100.35 -8.73311 99.4156 -7.75562L100.155 -7.0489ZM103.776 -9.90925C104.874 -10.6206 105.722 -11.241 106.306 -11.7686L105.62 -12.5275C105.096 -12.0536 104.3 -11.4676 103.22 -10.7677L103.776 -9.90925ZM106.316 -11.7777C106.945 -12.3762 107.345 -13.0765 107.487 -13.8743L106.479 -14.052C106.38 -13.4956 106.101 -12.9858 105.61 -12.5184L106.316 -11.7777ZM107.487 -13.8743C107.683 -14.9844 107.349 -15.9653 106.525 -16.7676L105.811 -16.0344C106.404 -15.4563 106.614 -14.8119 106.479 -14.052L107.487 -13.8743ZM106.541 -16.7507C105.775 -17.5696 104.698 -18.0774 103.364 -18.3126L103.185 -17.3051C104.367 -17.0968 105.218 -16.666 105.794 -16.0513L106.541 -16.7507ZM103.364 -18.3126C101.99 -18.5548 100.668 -18.4505 99.4069 -17.9935L99.755 -17.0317C100.839 -17.4245 101.979 -17.5178 103.185 -17.3051L103.364 -18.3126ZM99.4004 -17.9911C98.1744 -17.5281 97.1144 -16.7689 96.2227 -15.7249L97.0008 -15.0609C97.7873 -15.9818 98.7067 -16.6357 99.7614 -17.034L99.4004 -17.9911ZM96.9287 -15.7947L90.407 -20.9344L89.7731 -20.1308L96.2948 -14.991L96.9287 -15.7947ZM90.4797 -20.2013C92.1364 -22.1485 94.2346 -23.5235 96.7879 -24.3268L96.4813 -25.3027C93.7522 -24.4441 91.4874 -22.9643 89.7004 -20.8639L90.4797 -20.2013ZM96.7879 -24.3268C99.3332 -25.1276 102.277 -25.2454 105.634 -24.6534L105.813 -25.661C102.334 -26.2744 99.2183 -26.1638 96.4813 -25.3027L96.7879 -24.3268ZM105.634 -24.6534C109.405 -23.9886 112.233 -22.6729 114.173 -20.747L114.894 -21.4732C112.762 -23.5902 109.717 -24.9726 105.813 -25.661L105.634 -24.6534ZM114.179 -20.7413C116.128 -18.8663 116.857 -16.6065 116.378 -13.9024L117.386 -13.7247C117.924 -16.7596 117.087 -19.3641 114.888 -21.4789L114.179 -20.7413ZM116.378 -13.9024C116.155 -12.638 115.743 -11.5698 115.154 -10.6858L116.006 -10.1192C116.685 -11.1394 117.142 -12.3452 117.386 -13.7247L116.378 -13.9024ZM115.157 -10.6908C114.555 -9.80891 113.891 -9.09234 113.168 -8.53387L113.794 -7.72465C114.613 -8.35737 115.348 -9.15628 116.002 -10.1142L115.157 -10.6908ZM113.168 -8.53313C112.456 -7.9807 111.531 -7.36057 110.388 -6.67255L110.915 -5.79608C112.079 -6.49658 113.041 -7.13975 113.795 -7.7254L113.168 -8.53313ZM110.393 -6.67526C109.118 -5.92591 108.133 -5.2406 107.458 -4.61862L108.152 -3.86667C108.749 -4.41689 109.662 -5.05935 110.911 -5.79338L110.393 -6.67526ZM107.467 -4.62672C106.745 -3.99179 106.298 -3.17316 106.125 -2.19493L107.132 -2.01724C107.267 -2.78004 107.605 -3.38579 108.143 -3.85857L107.467 -4.62672ZM106.718 -2.60986L98.108 -4.12797L97.9295 -3.12042L106.539 -1.60231L106.718 -2.60986ZM100.151 9.39869C98.6831 9.1398 97.5842 8.48672 96.8109 7.45402L95.9915 8.06753C96.9393 9.33321 98.2811 10.1079 99.9729 10.4062L100.151 9.39869ZM96.8159 7.46076C96.0411 6.3899 95.773 5.22985 95.9997 3.94954L94.9921 3.77185C94.7163 5.32878 95.0517 6.76879 95.9866 8.06079L96.8159 7.46076ZM95.9997 3.94954C96.2337 2.62871 96.8695 1.65125 97.9083 0.97487L97.3502 0.117704C96.0585 0.958805 95.2721 2.19095 94.9921 3.77185L95.9997 3.94954ZM97.9014 0.979234C98.9746 0.304389 100.246 0.080965 101.755 0.346913L101.933 -0.660631C100.217 -0.963264 98.6789 -0.717924 97.357 0.11334L97.9014 0.979234ZM101.755 0.346913C103.263 0.612861 104.381 1.25768 105.157 2.25863L105.966 1.63137C105.01 0.398417 103.649 -0.357998 101.933 -0.660631L101.755 0.346913ZM105.157 2.25863C105.931 3.25618 106.205 4.39245 105.972 5.70787L106.979 5.88555C107.26 4.29925 106.925 2.86771 105.966 1.63137L105.157 2.25863ZM105.972 5.70787C105.745 6.98819 105.095 7.98629 103.999 8.72731L104.572 9.5746C105.894 8.68055 106.704 7.44249 106.979 5.88555L105.972 5.70787ZM104.006 8.72267C102.927 9.42687 101.655 9.66381 100.151 9.39869L99.9729 10.4062C101.694 10.7097 103.237 10.4456 104.565 9.57924L104.006 8.72267Z" fill="#202027" mask="url(#path-5-outside-1_14_3768)"/>
<rect x="0.202599" y="0.28958" width="105.961" height="141.448" rx="18.775" transform="matrix(0.984808 0.173648 -0.174411 0.984673 174.157 -67.8678)" fill="#BCEC30"/>
<rect x="0.202599" y="0.28958" width="105.961" height="141.448" rx="18.775" transform="matrix(0.984808 0.173648 -0.174411 0.984673 174.157 -67.8678)" stroke="#202027" stroke-width="0.5"/>
<mask id="path-8-outside-2_14_3768" maskUnits="userSpaceOnUse" x="190.844" y="-14.249" width="43.476" height="51.5463" fill="black">
<rect fill="white" x="190.844" y="-14.249" width="43.476" height="51.5463"/>
<path d="M207.928 16.2636C208.282 14.2654 209.012 12.7043 210.118 11.5805C211.231 10.4167 212.764 9.20354 214.719 7.94093C216.07 7.06627 217.088 6.31859 217.775 5.6979C218.469 5.03724 218.891 4.28728 219.039 3.44803C219.245 2.28905 218.908 1.28177 218.029 0.426178C217.197 -0.462333 216.002 -1.04402 214.443 -1.31888C212.844 -1.6008 211.318 -1.47838 209.864 -0.951628C208.451 -0.41783 207.224 0.457989 206.184 1.67583L198.1 -4.69511C200.234 -7.20367 202.938 -8.97297 206.212 -10.003C209.486 -11.033 213.241 -11.1745 217.478 -10.4275C222.235 -9.58876 225.875 -7.91658 228.399 -5.41091C230.97 -2.93816 231.94 0.0766469 231.31 3.6335C231.02 5.27204 230.482 6.68142 229.696 7.86162C228.917 9.00185 228.05 9.9411 227.094 10.6794C226.186 11.3847 225.017 12.1677 223.587 13.0282C222.023 13.9476 220.846 14.7705 220.058 15.497C219.277 16.1835 218.791 17.0663 218.6 18.1453L207.928 16.2636ZM210.461 33.0304C208.502 32.6851 206.99 31.8002 205.923 30.3757C204.863 28.9113 204.489 27.2999 204.801 25.5414C205.119 23.743 206.001 22.3736 207.445 21.4331C208.929 20.4996 210.671 20.2091 212.669 20.5615C214.668 20.9139 216.204 21.7823 217.278 23.1668C218.352 24.5513 218.729 26.1428 218.411 27.9412C218.099 29.6996 217.194 31.0855 215.696 32.0989C214.204 33.0723 212.459 33.3828 210.461 33.0304Z"/>
</mask>
<path d="M207.928 16.2636C208.282 14.2654 209.012 12.7043 210.118 11.5805C211.231 10.4167 212.764 9.20354 214.719 7.94093C216.07 7.06627 217.088 6.31859 217.775 5.6979C218.469 5.03724 218.891 4.28728 219.039 3.44803C219.245 2.28905 218.908 1.28177 218.029 0.426178C217.197 -0.462333 216.002 -1.04402 214.443 -1.31888C212.844 -1.6008 211.318 -1.47838 209.864 -0.951628C208.451 -0.41783 207.224 0.457989 206.184 1.67583L198.1 -4.69511C200.234 -7.20367 202.938 -8.97297 206.212 -10.003C209.486 -11.033 213.241 -11.1745 217.478 -10.4275C222.235 -9.58876 225.875 -7.91658 228.399 -5.41091C230.97 -2.93816 231.94 0.0766469 231.31 3.6335C231.02 5.27204 230.482 6.68142 229.696 7.86162C228.917 9.00185 228.05 9.9411 227.094 10.6794C226.186 11.3847 225.017 12.1677 223.587 13.0282C222.023 13.9476 220.846 14.7705 220.058 15.497C219.277 16.1835 218.791 17.0663 218.6 18.1453L207.928 16.2636ZM210.461 33.0304C208.502 32.6851 206.99 31.8002 205.923 30.3757C204.863 28.9113 204.489 27.2999 204.801 25.5414C205.119 23.743 206.001 22.3736 207.445 21.4331C208.929 20.4996 210.671 20.2091 212.669 20.5615C214.668 20.9139 216.204 21.7823 217.278 23.1668C218.352 24.5513 218.729 26.1428 218.411 27.9412C218.099 29.6996 217.194 31.0855 215.696 32.0989C214.204 33.0723 212.459 33.3828 210.461 33.0304Z" fill="white"/>
<path d="M207.928 16.2636L207.424 16.1747L207.335 16.6785L207.839 16.7674L207.928 16.2636ZM210.118 11.5805L210.482 11.9392L210.487 11.9339L210.118 11.5805ZM214.719 7.94093L214.997 8.37054L214.997 8.37017L214.719 7.94093ZM217.775 5.6979L218.118 6.07744L218.128 6.06826L217.775 5.6979ZM218.029 0.426177L217.655 0.775892L217.663 0.78454L217.672 0.792804L218.029 0.426177ZM209.864 -0.951629L209.69 -1.43258L209.684 -1.43016L209.864 -0.951629ZM206.184 1.67583L205.867 2.07765L206.253 2.38212L206.573 2.00783L206.184 1.67583ZM198.1 -4.69511L197.71 -5.02637L197.366 -4.62184L197.783 -4.29329L198.1 -4.69511ZM206.212 -10.003L206.365 -9.51506L206.212 -10.003ZM228.399 -5.41091L228.038 -5.04776L228.044 -5.04214L228.399 -5.41091ZM229.696 7.86161L230.118 8.14995L230.121 8.14493L229.696 7.86161ZM227.094 10.6794L226.782 10.2748L226.781 10.2755L227.094 10.6794ZM223.587 13.0282L223.846 13.4692L223.851 13.4665L223.587 13.0282ZM220.058 15.497L220.396 15.8812L220.405 15.873L220.058 15.497ZM218.6 18.1453L218.511 18.6491L219.015 18.738L219.104 18.2342L218.6 18.1453ZM205.923 30.3757L205.508 30.6758L205.513 30.6825L205.923 30.3757ZM207.445 21.4331L207.173 21.0001L207.166 21.0045L207.445 21.4331ZM217.278 23.1668L216.873 23.4805L217.278 23.1668ZM215.696 32.0989L215.975 32.5273L215.982 32.5226L215.696 32.0989ZM208.432 16.3524C208.773 14.4269 209.467 12.9705 210.482 11.9391L209.753 11.2219C208.556 12.4381 207.791 14.1038 207.424 16.1747L208.432 16.3524ZM210.487 11.9339C211.563 10.8087 213.062 9.62015 214.997 8.37054L214.442 7.51131C212.467 8.78693 210.898 10.0248 209.748 11.2272L210.487 11.9339ZM214.997 8.37017C216.356 7.48979 217.401 6.7249 218.118 6.07731L217.432 5.31849C216.775 5.91229 215.783 6.64275 214.441 7.51168L214.997 8.37017ZM218.128 6.06826C218.891 5.34204 219.373 4.49682 219.543 3.53687L218.535 3.35919C218.408 4.07775 218.048 4.73244 217.422 5.32754L218.128 6.06826ZM219.543 3.53687C219.779 2.20281 219.38 1.02728 218.386 0.0595506L217.672 0.792804C218.435 1.53627 218.71 2.3753 218.535 3.35919L219.543 3.53687ZM218.403 0.0764647C217.475 -0.914132 216.167 -1.53435 214.532 -1.82266L214.354 -0.815112C215.836 -0.553693 216.919 -0.0105339 217.655 0.775892L218.403 0.0764647ZM214.532 -1.82266C212.85 -2.11931 211.232 -1.99139 209.69 -1.43254L210.038 -0.470719C211.403 -0.965366 212.838 -1.08228 214.354 -0.815112L214.532 -1.82266ZM209.684 -1.43016C208.185 -0.864032 206.888 0.0644248 205.795 1.34383L206.573 2.00783C207.56 0.851552 208.717 0.0283704 210.045 -0.4731L209.684 -1.43016ZM206.501 1.27401L198.417 -5.09693L197.783 -4.29329L205.867 2.07765L206.501 1.27401ZM198.49 -4.36384C200.559 -6.79579 203.18 -8.51268 206.365 -9.51506L206.059 -10.4909C202.697 -9.43325 199.91 -7.61154 197.71 -5.02637L198.49 -4.36384ZM206.365 -9.51506C209.543 -10.5149 213.213 -10.66 217.389 -9.92368L217.567 -10.9312C213.27 -11.689 209.429 -11.5511 206.059 -10.4909L206.365 -9.51506ZM217.389 -9.92368C222.079 -9.09677 225.61 -7.45793 228.038 -5.0478L228.759 -5.77402C226.139 -8.37523 222.391 -10.0808 217.567 -10.9312L217.389 -9.92368ZM228.044 -5.04214C230.49 -2.68927 231.407 0.153198 230.806 3.54465L231.814 3.72234C232.473 9.64045e-05 231.449 -3.18704 228.754 -5.77968L228.044 -5.04214ZM230.806 3.54465C230.526 5.12564 230.011 6.46618 229.27 7.5783L230.121 8.14493C230.953 6.89666 231.514 5.41845 231.814 3.72234L230.806 3.54465ZM229.273 7.5733C228.52 8.67553 227.689 9.57361 226.782 10.2748L227.407 11.084C228.41 10.3086 229.313 9.32816 230.118 8.14993L229.273 7.5733ZM226.781 10.2755C225.894 10.9642 224.743 11.7357 223.323 12.59L223.851 13.4665C225.291 12.5997 226.479 11.8052 227.408 11.0832L226.781 10.2755ZM223.328 12.5873C221.751 13.5143 220.539 14.3586 219.712 15.121L220.405 15.873C221.154 15.1824 222.295 14.3809 223.846 13.4692L223.328 12.5873ZM219.721 15.1129C218.847 15.8805 218.306 16.8697 218.096 18.0565L219.104 18.2342C219.276 17.2629 219.707 16.4865 220.396 15.8811L219.721 15.1129ZM218.689 17.6416L208.017 15.7598L207.839 16.7674L218.511 18.6491L218.689 17.6416ZM210.55 32.5267C208.703 32.201 207.312 31.377 206.333 30.069L205.513 30.6825C206.667 32.2234 208.301 33.1692 210.372 33.5342L210.55 32.5267ZM206.338 30.0757C205.358 28.7219 205.018 27.2504 205.305 25.6303L204.297 25.4526C203.961 27.3493 204.369 29.1007 205.508 30.6757L206.338 30.0757ZM205.305 25.6303C205.6 23.9619 206.406 22.7198 207.724 21.8617L207.166 21.0045C205.595 22.0273 204.638 23.5241 204.297 25.4526L205.305 25.6303ZM207.717 21.866C209.077 21.0108 210.686 20.7312 212.58 21.0653L212.759 20.0577C210.656 19.687 208.782 19.9885 207.173 21.0001L207.717 21.866ZM212.58 21.0653C214.475 21.3993 215.889 22.212 216.873 23.4805L217.682 22.8532C216.518 21.3527 214.861 20.4284 212.759 20.0577L212.58 21.0653ZM216.873 23.4805C217.854 24.7456 218.201 26.1894 217.907 27.8524L218.914 28.03C219.257 26.0962 218.849 24.3571 217.682 22.8532L216.873 23.4805ZM217.907 27.8524C217.62 29.4725 216.795 30.7384 215.409 31.6753L215.982 32.5226C217.594 31.4327 218.578 29.9268 218.914 28.03L217.907 27.8524ZM215.416 31.6706C214.049 32.5629 212.44 32.8599 210.55 32.5267L210.372 33.5342C212.479 33.9058 214.359 33.5817 215.975 32.5272L215.416 31.6706Z" fill="#202027" mask="url(#path-8-outside-2_14_3768)"/>
<rect x="0.202599" y="0.28958" width="105.961" height="141.448" rx="18.775" transform="matrix(0.984808 0.173648 -0.174411 0.984673 285.155 -48.2959)" fill="#BCEC30"/>
<rect x="0.202599" y="0.28958" width="105.961" height="141.448" rx="18.775" transform="matrix(0.984808 0.173648 -0.174411 0.984673 285.155 -48.2959)" stroke="#202027" stroke-width="0.5"/>
<mask id="path-11-outside-3_14_3768" maskUnits="userSpaceOnUse" x="301.842" y="5.32295" width="43.476" height="51.5463" fill="black">
<rect fill="white" x="301.842" y="5.32295" width="43.476" height="51.5463"/>
<path d="M318.926 35.8355C319.28 33.8373 320.01 32.2762 321.116 31.1524C322.229 29.9886 323.763 28.7754 325.717 27.5128C327.068 26.6382 328.086 25.8905 328.773 25.2698C329.467 24.6091 329.889 23.8592 330.037 23.0199C330.243 21.861 329.906 20.8537 329.027 19.9981C328.195 19.1096 327 18.5279 325.441 18.253C323.842 17.9711 322.316 18.0935 320.862 18.6203C319.449 19.1541 318.222 20.0299 317.182 21.2477L309.098 14.8768C311.232 12.3682 313.936 10.5989 317.21 9.5689C320.484 8.53887 324.239 8.39738 328.476 9.14445C333.233 9.98314 336.873 11.6553 339.397 14.161C341.968 16.6337 342.938 19.6485 342.308 23.2054C342.018 24.8439 341.48 26.2533 340.694 27.4335C339.915 28.5737 339.048 29.513 338.092 30.2513C337.184 30.9566 336.015 31.7396 334.585 32.6001C333.021 33.5195 331.845 34.3424 331.056 35.0689C330.275 35.7554 329.789 36.6382 329.598 37.7172L318.926 35.8355ZM321.459 52.6023C319.5 52.257 317.988 51.3721 316.921 49.9476C315.861 48.4832 315.487 46.8718 315.799 45.1133C316.117 43.3149 316.999 41.9455 318.443 41.005C319.927 40.0715 321.669 39.781 323.667 40.1334C325.666 40.4858 327.202 41.3542 328.276 42.7387C329.35 44.1232 329.727 45.7147 329.409 47.5131C329.097 49.2715 328.192 50.6574 326.694 51.6708C325.202 52.6442 323.457 52.9547 321.459 52.6023Z"/>
</mask>
<path d="M318.926 35.8355C319.28 33.8373 320.01 32.2762 321.116 31.1524C322.229 29.9886 323.763 28.7754 325.717 27.5128C327.068 26.6382 328.086 25.8905 328.773 25.2698C329.467 24.6091 329.889 23.8592 330.037 23.0199C330.243 21.861 329.906 20.8537 329.027 19.9981C328.195 19.1096 327 18.5279 325.441 18.253C323.842 17.9711 322.316 18.0935 320.862 18.6203C319.449 19.1541 318.222 20.0299 317.182 21.2477L309.098 14.8768C311.232 12.3682 313.936 10.5989 317.21 9.5689C320.484 8.53887 324.239 8.39738 328.476 9.14445C333.233 9.98314 336.873 11.6553 339.397 14.161C341.968 16.6337 342.938 19.6485 342.308 23.2054C342.018 24.8439 341.48 26.2533 340.694 27.4335C339.915 28.5737 339.048 29.513 338.092 30.2513C337.184 30.9566 336.015 31.7396 334.585 32.6001C333.021 33.5195 331.845 34.3424 331.056 35.0689C330.275 35.7554 329.789 36.6382 329.598 37.7172L318.926 35.8355ZM321.459 52.6023C319.5 52.257 317.988 51.3721 316.921 49.9476C315.861 48.4832 315.487 46.8718 315.799 45.1133C316.117 43.3149 316.999 41.9455 318.443 41.005C319.927 40.0715 321.669 39.781 323.667 40.1334C325.666 40.4858 327.202 41.3542 328.276 42.7387C329.35 44.1232 329.727 45.7147 329.409 47.5131C329.097 49.2715 328.192 50.6574 326.694 51.6708C325.202 52.6442 323.457 52.9547 321.459 52.6023Z" fill="white"/>
<path d="M318.926 35.8355L318.422 35.7466L318.333 36.2504L318.837 36.3393L318.926 35.8355ZM321.116 31.1524L321.48 31.5111L321.485 31.5058L321.116 31.1524ZM325.717 27.5128L325.995 27.9424L325.995 27.9421L325.717 27.5128ZM328.773 25.2698L329.116 25.6493L329.126 25.6402L328.773 25.2698ZM329.027 19.9981L328.653 20.3478L328.661 20.3564L328.67 20.3647L329.027 19.9981ZM320.862 18.6203L320.688 18.1393L320.682 18.1417L320.862 18.6203ZM317.182 21.2477L316.865 21.6495L317.251 21.954L317.571 21.5797L317.182 21.2477ZM309.098 14.8768L308.708 14.5455L308.364 14.9501L308.781 15.2786L309.098 14.8768ZM317.21 9.5689L317.364 10.0568L317.21 9.5689ZM339.397 14.161L339.036 14.5241L339.042 14.5298L339.397 14.161ZM340.694 27.4335L341.116 27.7218L341.12 27.7168L340.694 27.4335ZM338.092 30.2513L337.78 29.8467L337.779 29.8474L338.092 30.2513ZM334.585 32.6001L334.844 33.0411L334.849 33.0384L334.585 32.6001ZM331.056 35.0689L331.394 35.4531L331.403 35.4449L331.056 35.0689ZM329.598 37.7172L329.509 38.221L330.013 38.3099L330.102 37.8061L329.598 37.7172ZM316.921 49.9476L316.506 50.2477L316.511 50.2544L316.921 49.9476ZM318.443 41.005L318.171 40.572L318.164 40.5764L318.443 41.005ZM328.276 42.7387L327.871 43.0524L328.276 42.7387ZM326.694 51.6708L326.973 52.0992L326.98 52.0945L326.694 51.6708ZM319.43 35.9243C319.771 33.9988 320.465 32.5424 321.48 31.511L320.751 30.7938C319.554 32.01 318.789 33.6757 318.422 35.7466L319.43 35.9243ZM321.485 31.5058C322.561 30.3806 324.06 29.192 325.995 27.9424L325.44 27.0832C323.465 28.3588 321.896 29.5967 320.746 30.7991L321.485 31.5058ZM325.995 27.9421C327.354 27.0617 328.399 26.2968 329.116 25.6492L328.43 24.8904C327.773 25.4842 326.781 26.2147 325.439 27.0836L325.995 27.9421ZM329.126 25.6402C329.889 24.9139 330.371 24.0687 330.541 23.1088L329.533 22.9311C329.406 23.6496 329.046 24.3043 328.421 24.8994L329.126 25.6402ZM330.541 23.1088C330.777 21.7747 330.378 20.5992 329.384 19.6314L328.67 20.3647C329.434 21.1082 329.708 21.9472 329.533 22.9311L330.541 23.1088ZM329.401 19.6484C328.473 18.6578 327.165 18.0376 325.53 17.7492L325.352 18.7568C326.834 19.0182 327.917 19.5614 328.653 20.3478L329.401 19.6484ZM325.53 17.7492C323.848 17.4526 322.23 17.5805 320.688 18.1394L321.036 19.1012C322.401 18.6065 323.836 18.4896 325.352 18.7568L325.53 17.7492ZM320.682 18.1417C319.183 18.7079 317.886 19.6363 316.793 20.9157L317.571 21.5797C318.558 20.4235 319.715 19.6003 321.043 19.0988L320.682 18.1417ZM317.499 20.8459L309.415 14.475L308.781 15.2786L316.865 21.6495L317.499 20.8459ZM309.488 15.2081C311.557 12.7761 314.178 11.0592 317.364 10.0568L317.057 9.08096C313.695 10.1386 310.908 11.9604 308.708 14.5455L309.488 15.2081ZM317.364 10.0568C320.542 9.05695 324.211 8.91188 328.387 9.64822L328.565 8.64068C324.268 7.88289 320.427 8.02078 317.057 9.08096L317.364 10.0568ZM328.387 9.64822C333.077 10.4751 336.608 12.114 339.036 14.5241L339.757 13.7979C337.137 11.1967 333.389 9.49114 328.565 8.64068L328.387 9.64822ZM339.042 14.5298C341.488 16.8826 342.405 19.7251 341.804 23.1166L342.812 23.2942C343.471 19.572 342.447 16.3849 339.752 13.7922L339.042 14.5298ZM341.804 23.1166C341.524 24.6975 341.009 26.0381 340.268 27.1502L341.12 27.7168C341.951 26.4686 342.512 24.9903 342.812 23.2942L341.804 23.1166ZM340.271 27.1452C339.518 28.2474 338.687 29.1455 337.78 29.8467L338.405 30.6559C339.408 29.8805 340.311 28.9001 341.116 27.7218L340.271 27.1452ZM337.779 29.8474C336.892 30.5361 335.741 31.3076 334.321 32.1619L334.849 33.0384C336.289 32.1716 337.477 31.3771 338.406 30.6551L337.779 29.8474ZM334.326 32.1592C332.749 33.0862 331.537 33.9305 330.71 34.6929L331.403 35.4449C332.152 34.7543 333.293 33.9528 334.844 33.0411L334.326 32.1592ZM330.719 34.6848C329.845 35.4524 329.304 36.4416 329.094 37.6284L330.102 37.8061C330.274 36.8348 330.705 36.0584 331.394 35.453L330.719 34.6848ZM329.687 37.2135L319.015 35.3317L318.837 36.3393L329.509 38.221L329.687 37.2135ZM321.548 52.0986C319.701 51.7729 318.31 50.9489 317.331 49.6409L316.511 50.2544C317.665 51.7953 319.299 52.7411 321.37 53.1061L321.548 52.0986ZM317.336 49.6476C316.356 48.2938 316.016 46.8223 316.303 45.2022L315.295 45.0245C314.959 46.9212 315.367 48.6726 316.506 50.2476L317.336 49.6476ZM316.303 45.2022C316.598 43.5338 317.404 42.2917 318.722 41.4336L318.164 40.5764C316.593 41.5992 315.637 43.096 315.295 45.0245L316.303 45.2022ZM318.715 41.4379C320.075 40.5827 321.684 40.3031 323.578 40.6372L323.757 39.6296C321.654 39.2589 319.78 39.5604 318.171 40.572L318.715 41.4379ZM323.578 40.6372C325.473 40.9712 326.888 41.7839 327.871 43.0524L328.68 42.4251C327.517 40.9246 325.859 40.0003 323.757 39.6296L323.578 40.6372ZM327.871 43.0524C328.852 44.3175 329.199 45.7613 328.905 47.4243L329.912 47.6019C330.255 45.6681 329.847 43.929 328.68 42.4251L327.871 43.0524ZM328.905 47.4243C328.618 49.0444 327.793 50.3103 326.407 51.2472L326.98 52.0945C328.592 51.0046 329.576 49.4987 329.912 47.6019L328.905 47.4243ZM326.414 51.2425C325.047 52.1348 323.438 52.4318 321.548 52.0986L321.37 53.1061C323.477 53.4777 325.358 53.1536 326.973 52.0991L326.414 51.2425Z" fill="#202027" mask="url(#path-11-outside-3_14_3768)"/>
<rect x="0.202599" y="0.28958" width="105.961" height="141.448" rx="18.775" transform="matrix(0.984808 0.173648 -0.174411 0.984673 396.153 -28.724)" fill="#BCEC30"/>
<rect x="0.202599" y="0.28958" width="105.961" height="141.448" rx="18.775" transform="matrix(0.984808 0.173648 -0.174411 0.984673 396.153 -28.724)" stroke="#202027" stroke-width="0.5"/>
<rect x="0.202599" y="0.28958" width="105.961" height="141.448" rx="18.775" transform="matrix(0.984808 0.173648 -0.174411 0.984673 -73.5529 38.8258)" fill="#BCEC30"/>
<rect x="0.202599" y="0.28958" width="105.961" height="141.448" rx="18.775" transform="matrix(0.984808 0.173648 -0.174411 0.984673 -73.5529 38.8258)" stroke="#202027" stroke-width="0.5"/>
<rect x="0.202599" y="0.28958" width="105.961" height="141.448" rx="18.775" transform="matrix(0.984808 0.173648 -0.174411 0.984673 37.4452 58.3978)" fill="#BCEC30"/>
<rect x="0.202599" y="0.28958" width="105.961" height="141.448" rx="18.775" transform="matrix(0.984808 0.173648 -0.174411 0.984673 37.4452 58.3978)" stroke="#202027" stroke-width="0.5"/>
<mask id="path-16-outside-4_14_3768" maskUnits="userSpaceOnUse" x="54.1324" y="112.017" width="43.476" height="51.5463" fill="black">
<rect fill="white" x="54.1324" y="112.017" width="43.476" height="51.5463"/>
<path d="M71.2161 142.529C71.57 140.531 72.2999 138.97 73.4058 137.846C74.5187 136.682 76.0526 135.469 78.0074 134.207C79.3576 133.332 80.3763 132.584 81.0633 131.964C81.7573 131.303 82.1787 130.553 82.3274 129.714C82.5326 128.555 82.1958 127.547 81.3169 126.692C80.4851 125.803 79.2897 125.222 77.7309 124.947C76.1321 124.665 74.6059 124.787 73.1524 125.314C71.7389 125.848 70.5121 126.724 69.472 127.941L61.3881 121.571C63.5224 119.062 66.2265 117.293 69.5003 116.263C72.7741 115.233 76.5294 115.091 80.7663 115.838C85.5227 116.677 89.1629 118.349 91.6868 120.855C94.2577 123.328 95.2282 126.342 94.5982 129.899C94.308 131.538 93.7698 132.947 92.9837 134.127C92.2047 135.268 91.3376 136.207 90.3825 136.945C89.4744 137.65 88.3053 138.433 86.8751 139.294C85.3108 140.213 84.1346 141.036 83.3464 141.763C82.5653 142.449 82.0792 143.332 81.8881 144.411L71.2161 142.529ZM73.7489 159.296C71.7903 158.951 70.2777 158.066 69.2111 156.641C68.1515 155.177 67.7774 153.566 68.0888 151.807C68.4074 150.009 69.2888 148.639 70.7332 147.699C72.2175 146.765 73.9589 146.475 75.9574 146.827C77.9559 147.18 79.4921 148.048 80.5658 149.432C81.6396 150.817 82.0172 152.408 81.6987 154.207C81.3872 155.965 80.4822 157.351 78.9837 158.365C77.4923 159.338 75.7474 159.648 73.7489 159.296Z"/>
</mask>
<path d="M71.2161 142.529C71.57 140.531 72.2999 138.97 73.4058 137.846C74.5187 136.682 76.0526 135.469 78.0074 134.207C79.3576 133.332 80.3763 132.584 81.0633 131.964C81.7573 131.303 82.1787 130.553 82.3274 129.714C82.5326 128.555 82.1958 127.547 81.3169 126.692C80.4851 125.803 79.2897 125.222 77.7309 124.947C76.1321 124.665 74.6059 124.787 73.1524 125.314C71.7389 125.848 70.5121 126.724 69.472 127.941L61.3881 121.571C63.5224 119.062 66.2265 117.293 69.5003 116.263C72.7741 115.233 76.5294 115.091 80.7663 115.838C85.5227 116.677 89.1629 118.349 91.6868 120.855C94.2577 123.328 95.2282 126.342 94.5982 129.899C94.308 131.538 93.7698 132.947 92.9837 134.127C92.2047 135.268 91.3376 136.207 90.3825 136.945C89.4744 137.65 88.3053 138.433 86.8751 139.294C85.3108 140.213 84.1346 141.036 83.3464 141.763C82.5653 142.449 82.0792 143.332 81.8881 144.411L71.2161 142.529ZM73.7489 159.296C71.7903 158.951 70.2777 158.066 69.2111 156.641C68.1515 155.177 67.7774 153.566 68.0888 151.807C68.4074 150.009 69.2888 148.639 70.7332 147.699C72.2175 146.765 73.9589 146.475 75.9574 146.827C77.9559 147.18 79.4921 148.048 80.5658 149.432C81.6396 150.817 82.0172 152.408 81.6987 154.207C81.3872 155.965 80.4822 157.351 78.9837 158.365C77.4923 159.338 75.7474 159.648 73.7489 159.296Z" fill="white"/>
<path d="M71.2161 142.529L70.7122 142.44L70.623 142.944L71.1268 143.033L71.2161 142.529ZM73.4058 137.846L73.7704 138.205L73.7755 138.2L73.4058 137.846ZM78.0074 134.207L78.2848 134.636L78.2854 134.636L78.0074 134.207ZM81.0633 131.964L81.4063 132.343L81.416 132.334L81.0633 131.964ZM81.3169 126.692L80.9432 127.042L80.9513 127.05L80.9598 127.058L81.3169 126.692ZM73.1524 125.314L72.9783 124.833L72.9719 124.836L73.1524 125.314ZM69.472 127.941L69.155 128.343L69.5414 128.648L69.861 128.273L69.472 127.941ZM61.3881 121.571L60.9985 121.239L60.6543 121.644L61.0712 121.972L61.3881 121.571ZM69.5003 116.263L69.6536 116.751L69.5003 116.263ZM91.6868 120.855L91.3261 121.218L91.3319 121.224L91.6868 120.855ZM92.9837 134.127L93.4062 134.416L93.4095 134.411L92.9837 134.127ZM90.3825 136.945L90.0697 136.54L90.0687 136.541L90.3825 136.945ZM86.8751 139.294L87.1341 139.735L87.1387 139.732L86.8751 139.294ZM83.3464 141.763L83.6842 142.147L83.6931 142.139L83.3464 141.763ZM81.8881 144.411L81.7988 144.915L82.3027 145.004L82.3919 144.5L81.8881 144.411ZM69.2111 156.641L68.7963 156.941L68.8014 156.948L69.2111 156.641ZM70.7332 147.699L70.4609 147.266L70.4542 147.27L70.7332 147.699ZM80.5658 149.432L80.1614 149.746L80.5658 149.432ZM78.9837 158.365L79.2633 158.793L79.2702 158.788L78.9837 158.365ZM71.7199 142.618C72.0609 140.693 72.7555 139.236 73.7704 138.205L73.0411 137.488C71.8443 138.704 71.079 140.369 70.7122 142.44L71.7199 142.618ZM73.7755 138.2C74.8515 137.074 76.3502 135.886 78.2848 134.636L77.7299 133.777C75.755 135.053 74.1859 136.29 73.036 137.493L73.7755 138.2ZM78.2854 134.636C79.6445 133.755 80.6894 132.991 81.4062 132.343L80.7203 131.584C80.0631 132.178 79.0708 132.908 77.7294 133.777L78.2854 134.636ZM81.416 132.334C82.1789 131.608 82.6612 130.762 82.8312 129.803L81.8235 129.625C81.6962 130.343 81.3358 130.998 80.7106 131.593L81.416 132.334ZM82.8312 129.803C83.0675 128.468 82.6681 127.293 81.674 126.325L80.9598 127.058C81.7235 127.802 81.9978 128.641 81.8235 129.625L82.8312 129.803ZM81.6906 126.342C80.7632 125.352 79.4552 124.731 77.8201 124.443L77.6416 125.451C79.1242 125.712 80.2069 126.255 80.9432 127.042L81.6906 126.342ZM77.8201 124.443C76.1377 124.146 74.5204 124.274 72.9783 124.833L73.3265 125.795C74.6914 125.3 76.1265 125.183 77.6416 125.451L77.8201 124.443ZM72.9719 124.836C71.4728 125.402 70.1756 126.33 69.0829 127.609L69.861 128.273C70.8485 127.117 72.005 126.294 73.3329 125.793L72.9719 124.836ZM69.7889 127.54L61.7051 121.169L61.0712 121.972L69.155 128.343L69.7889 127.54ZM61.7778 121.902C63.8469 119.47 66.4676 117.753 69.6536 116.751L69.347 115.775C65.9853 116.832 63.1979 118.654 60.9985 121.239L61.7778 121.902ZM69.6536 116.751C72.8316 115.751 76.501 115.606 80.677 116.342L80.8555 115.334C76.5579 114.577 72.7167 114.715 69.347 115.775L69.6536 116.751ZM80.677 116.342C85.3667 117.169 88.8984 118.808 91.3261 121.218L92.0475 120.492C89.4273 117.89 85.6787 116.185 80.8555 115.334L80.677 116.342ZM91.3319 121.224C93.7782 123.576 94.6951 126.419 94.0944 129.81L95.1021 129.988C95.7614 126.266 94.7373 123.079 92.0417 120.486L91.3319 121.224ZM94.0944 129.81C93.8143 131.391 93.2986 132.732 92.5579 133.844L93.4095 134.411C94.241 133.162 94.8016 131.684 95.1021 129.988L94.0944 129.81ZM92.5613 133.839C91.8082 134.941 90.9768 135.839 90.0697 136.54L90.6953 137.35C91.6984 136.574 92.6012 135.594 93.4062 134.416L92.5613 133.839ZM90.0687 136.541C89.182 137.23 88.0313 138.001 86.6114 138.856L87.1387 139.732C88.5792 138.865 89.7668 138.071 90.6962 137.349L90.0687 136.541ZM86.616 138.853C85.0387 139.78 83.8268 140.624 82.9997 141.387L83.6931 142.139C84.4423 141.448 85.5829 140.647 87.1341 139.735L86.616 138.853ZM83.0087 141.379C82.1354 142.146 81.5944 143.135 81.3842 144.322L82.3919 144.5C82.5639 143.529 82.9952 142.752 83.6841 142.147L83.0087 141.379ZM81.9773 143.907L71.3053 142.025L71.1268 143.033L81.7988 144.915L81.9773 143.907ZM73.8381 158.792C71.9913 158.467 70.6002 157.643 69.6207 156.335L68.8014 156.948C69.9553 158.489 71.5893 159.435 73.6596 159.8L73.8381 158.792ZM69.6257 156.341C68.6461 154.988 68.3057 153.516 68.5927 151.896L67.585 151.718C67.249 153.615 67.6568 155.366 68.7964 156.941L69.6257 156.341ZM68.5927 151.896C68.8882 150.228 69.6944 148.985 71.0122 148.127L70.4542 147.27C68.8833 148.293 67.9266 149.79 67.585 151.718L68.5927 151.896ZM71.0054 148.132C72.3654 147.276 73.9737 146.997 75.8682 147.331L76.0467 146.323C73.9441 145.953 72.0697 146.254 70.461 147.266L71.0054 148.132ZM75.8682 147.331C77.7627 147.665 79.1776 148.478 80.1614 149.746L80.9703 149.119C79.8066 147.618 78.1492 146.694 76.0467 146.323L75.8682 147.331ZM80.1614 149.746C81.1425 151.011 81.4894 152.455 81.1948 154.118L82.2025 154.296C82.545 152.362 82.1367 150.623 80.9703 149.119L80.1614 149.746ZM81.1948 154.118C80.9078 155.738 80.0826 157.004 78.6973 157.941L79.2702 158.788C80.8818 157.698 81.8665 156.192 82.2025 154.296L81.1948 154.118ZM78.7042 157.936C77.3371 158.829 75.7279 159.126 73.8381 158.792L73.6596 159.8C75.7669 160.171 77.6476 159.847 79.2632 158.793L78.7042 157.936Z" fill="#202027" mask="url(#path-16-outside-4_14_3768)"/>
<rect x="0.202599" y="0.28958" width="105.961" height="141.448" rx="18.775" transform="matrix(0.984808 0.173648 -0.174411 0.984673 148.442 77.9696)" fill="#BCEC30"/>
<rect x="0.202599" y="0.28958" width="105.961" height="141.448" rx="18.775" transform="matrix(0.984808 0.173648 -0.174411 0.984673 148.442 77.9696)" stroke="#202027" stroke-width="0.5"/>
<mask id="path-19-outside-5_14_3768" maskUnits="userSpaceOnUse" x="169.361" y="136.627" width="35.9974" height="41.6423" fill="black">
<rect fill="white" x="169.361" y="136.627" width="35.9974" height="41.6423"/>
<path d="M183.301 161.785C183.587 160.173 184.175 158.914 185.068 158.007C185.965 157.068 187.203 156.089 188.78 155.071C189.869 154.365 190.691 153.762 191.245 153.261C191.805 152.728 192.145 152.123 192.265 151.446C192.431 150.511 192.159 149.699 191.45 149.008C190.779 148.292 189.814 147.822 188.557 147.601C187.267 147.373 186.036 147.472 184.863 147.897C183.723 148.327 182.733 149.034 181.894 150.017L175.372 144.877C177.094 142.853 179.276 141.426 181.917 140.595C184.558 139.764 187.588 139.65 191.006 140.252C194.843 140.929 197.78 142.278 199.816 144.299C201.89 146.294 202.673 148.726 202.165 151.596C201.93 152.918 201.496 154.055 200.862 155.007C200.234 155.927 199.534 156.685 198.764 157.28C198.031 157.849 197.088 158.481 195.934 159.175C194.672 159.917 193.723 160.581 193.087 161.167C192.457 161.721 192.065 162.433 191.911 163.303L183.301 161.785ZM185.344 175.312C183.764 175.033 182.544 174.319 181.683 173.17C180.829 171.989 180.527 170.689 180.778 169.27C181.035 167.819 181.746 166.714 182.911 165.956C184.109 165.203 185.514 164.968 187.126 165.253C188.738 165.537 189.978 166.237 190.844 167.354C191.71 168.471 192.015 169.755 191.758 171.206C191.507 172.625 190.776 173.743 189.568 174.56C188.364 175.346 186.957 175.596 185.344 175.312Z"/>
</mask>
<path d="M183.301 161.785C183.587 160.173 184.175 158.914 185.068 158.007C185.965 157.068 187.203 156.089 188.78 155.071C189.869 154.365 190.691 153.762 191.245 153.261C191.805 152.728 192.145 152.123 192.265 151.446C192.431 150.511 192.159 149.699 191.45 149.008C190.779 148.292 189.814 147.822 188.557 147.601C187.267 147.373 186.036 147.472 184.863 147.897C183.723 148.327 182.733 149.034 181.894 150.017L175.372 144.877C177.094 142.853 179.276 141.426 181.917 140.595C184.558 139.764 187.588 139.65 191.006 140.252C194.843 140.929 197.78 142.278 199.816 144.299C201.89 146.294 202.673 148.726 202.165 151.596C201.93 152.918 201.496 154.055 200.862 155.007C200.234 155.927 199.534 156.685 198.764 157.28C198.031 157.849 197.088 158.481 195.934 159.175C194.672 159.917 193.723 160.581 193.087 161.167C192.457 161.721 192.065 162.433 191.911 163.303L183.301 161.785ZM185.344 175.312C183.764 175.033 182.544 174.319 181.683 173.17C180.829 171.989 180.527 170.689 180.778 169.27C181.035 167.819 181.746 166.714 182.911 165.956C184.109 165.203 185.514 164.968 187.126 165.253C188.738 165.537 189.978 166.237 190.844 167.354C191.71 168.471 192.015 169.755 191.758 171.206C191.507 172.625 190.776 173.743 189.568 174.56C188.364 175.346 186.957 175.596 185.344 175.312Z" fill="white"/>
<path d="M183.301 161.785L182.797 161.696L182.708 162.2L183.212 162.289L183.301 161.785ZM185.068 158.007L185.432 158.366L185.437 158.36L185.068 158.007ZM188.78 155.071L189.057 155.5L189.058 155.5L188.78 155.071ZM191.245 153.261L191.588 153.641L191.598 153.632L191.245 153.261ZM191.45 149.008L191.076 149.358L191.084 149.367L191.093 149.375L191.45 149.008ZM184.863 147.897L184.689 147.416L184.683 147.418L184.863 147.897ZM181.894 150.017L181.577 150.418L181.963 150.723L182.283 150.349L181.894 150.017ZM175.372 144.877L174.983 144.545L174.638 144.95L175.055 145.279L175.372 144.877ZM181.917 140.595L182.07 141.083L182.07 141.083L181.917 140.595ZM199.816 144.299L199.455 144.662L199.461 144.668L199.816 144.299ZM200.862 155.007L201.285 155.295L201.288 155.29L200.862 155.007ZM198.764 157.28L198.451 156.876L198.45 156.876L198.764 157.28ZM195.934 159.175L196.193 159.616L196.198 159.613L195.934 159.175ZM193.087 161.167L193.425 161.551L193.434 161.543L193.087 161.167ZM191.911 163.303L191.821 163.807L192.325 163.896L192.414 163.392L191.911 163.303ZM181.683 173.17L181.269 173.47L181.274 173.477L181.683 173.17ZM182.911 165.956L182.639 165.523L182.632 165.527L182.911 165.956ZM190.844 167.354L190.439 167.668L190.844 167.354ZM189.568 174.56L189.847 174.989L189.854 174.984L189.568 174.56ZM183.805 161.874C184.077 160.335 184.631 159.18 185.432 158.366L184.703 157.649C183.72 158.648 183.096 160.012 182.797 161.696L183.805 161.874ZM185.437 158.36C186.298 157.46 187.5 156.506 189.057 155.5L188.502 154.641C186.905 155.673 185.633 156.676 184.698 157.654L185.437 158.36ZM189.058 155.5C190.156 154.789 191.004 154.168 191.588 153.641L190.902 152.882C190.378 153.356 189.582 153.942 188.502 154.642L189.058 155.5ZM191.598 153.632C192.227 153.033 192.628 152.333 192.769 151.535L191.761 151.357C191.663 151.914 191.384 152.424 190.893 152.891L191.598 153.632ZM192.769 151.535C192.966 150.425 192.631 149.444 191.807 148.642L191.093 149.375C191.687 149.953 191.896 150.597 191.761 151.357L192.769 151.535ZM191.824 148.659C191.057 147.84 189.98 147.332 188.646 147.097L188.468 148.104C189.649 148.313 190.501 148.743 191.076 149.358L191.824 148.659ZM188.646 147.097C187.273 146.855 185.95 146.959 184.689 147.416L185.037 148.378C186.121 147.985 187.261 147.892 188.468 148.104L188.646 147.097ZM184.683 147.418C183.457 147.881 182.397 148.64 181.505 149.685L182.283 150.349C183.07 149.428 183.989 148.774 185.044 148.375L184.683 147.418ZM182.211 149.615L175.689 144.475L175.055 145.279L181.577 150.418L182.211 149.615ZM175.762 145.208C177.419 143.261 179.517 141.886 182.07 141.083L181.764 140.107C179.034 140.965 176.77 142.445 174.983 144.545L175.762 145.208ZM182.07 141.083C184.615 140.282 187.559 140.164 190.916 140.756L191.095 139.748C187.616 139.135 184.5 139.246 181.764 140.107L182.07 141.083ZM190.916 140.756C194.687 141.421 197.515 142.736 199.455 144.662L200.176 143.936C198.044 141.819 194.999 140.437 191.095 139.748L190.916 140.756ZM199.461 144.668C201.41 146.543 202.14 148.803 201.661 151.507L202.668 151.685C203.206 148.65 202.369 146.045 200.171 143.931L199.461 144.668ZM201.661 151.507C201.437 152.771 201.025 153.84 200.436 154.724L201.288 155.29C201.967 154.27 202.424 153.064 202.668 151.685L201.661 151.507ZM200.44 154.719C199.837 155.6 199.173 156.317 198.451 156.876L199.076 157.685C199.895 157.052 200.63 156.253 201.285 155.295L200.44 154.719ZM198.45 156.876C197.739 157.429 196.814 158.049 195.67 158.737L196.198 159.613C197.362 158.913 198.323 158.27 199.077 157.684L198.45 156.876ZM195.675 158.734C194.4 159.483 193.415 160.169 192.74 160.791L193.434 161.543C194.031 160.992 194.944 160.35 196.193 159.616L195.675 158.734ZM192.749 160.783C192.027 161.418 191.58 162.236 191.407 163.214L192.414 163.392C192.55 162.629 192.887 162.024 193.425 161.551L192.749 160.783ZM192 162.8L183.39 161.281L183.212 162.289L191.821 163.807L192 162.8ZM185.434 174.808C183.965 174.549 182.866 173.896 182.093 172.863L181.274 173.477C182.222 174.743 183.563 175.517 185.255 175.816L185.434 174.808ZM182.098 172.87C181.323 171.799 181.055 170.639 181.282 169.359L180.274 169.181C179.999 170.738 180.334 172.178 181.269 173.47L182.098 172.87ZM181.282 169.359C181.516 168.038 182.152 167.061 183.19 166.384L182.632 165.527C181.341 166.368 180.554 167.6 180.274 169.181L181.282 169.359ZM183.184 166.389C184.257 165.714 185.529 165.49 187.037 165.756L187.215 164.749C185.499 164.446 183.961 164.691 182.639 165.523L183.184 166.389ZM187.037 165.756C188.545 166.022 189.663 166.667 190.439 167.668L191.248 167.041C190.292 165.808 188.932 165.051 187.215 164.749L187.037 165.756ZM190.439 167.668C191.213 168.666 191.487 169.802 191.254 171.117L192.262 171.295C192.543 169.709 192.207 168.277 191.248 167.041L190.439 167.668ZM191.254 171.117C191.027 172.398 190.377 173.396 189.281 174.137L189.854 174.984C191.176 174.09 191.986 172.852 192.262 171.295L191.254 171.117ZM189.288 174.132C188.209 174.836 186.937 175.073 185.434 174.808L185.255 175.816C186.976 176.119 188.52 175.855 189.847 174.989L189.288 174.132Z" fill="#202027" mask="url(#path-19-outside-5_14_3768)"/>
<rect x="0.202599" y="0.28958" width="105.961" height="141.448" rx="18.775" transform="matrix(0.984808 0.173648 -0.174411 0.984673 259.44 97.5415)" fill="#BCEC30"/>
<rect x="0.202599" y="0.28958" width="105.961" height="141.448" rx="18.775" transform="matrix(0.984808 0.173648 -0.174411 0.984673 259.44 97.5415)" stroke="#202027" stroke-width="0.5"/>
<mask id="path-22-outside-6_14_3768" maskUnits="userSpaceOnUse" x="276.127" y="151.16" width="43.476" height="51.5463" fill="black">
<rect fill="white" x="276.127" y="151.16" width="43.476" height="51.5463"/>
<path d="M293.211 181.673C293.565 179.675 294.295 178.114 295.401 176.99C296.514 175.826 298.048 174.613 300.003 173.35C301.353 172.476 302.371 171.728 303.058 171.107C303.752 170.447 304.174 169.697 304.322 168.857C304.528 167.698 304.191 166.691 303.312 165.836C302.48 164.947 301.285 164.365 299.726 164.09C298.127 163.809 296.601 163.931 295.148 164.458C293.734 164.992 292.507 165.867 291.467 167.085L283.383 160.714C285.518 158.206 288.222 156.436 291.495 155.406C294.769 154.376 298.525 154.235 302.761 154.982C307.518 155.821 311.158 157.493 313.682 159.998C316.253 162.471 317.223 165.486 316.593 169.043C316.303 170.681 315.765 172.091 314.979 173.271C314.2 174.411 313.333 175.35 312.378 176.089C311.47 176.794 310.3 177.577 308.87 178.438C307.306 179.357 306.13 180.18 305.342 180.906C304.56 181.593 304.074 182.476 303.883 183.555L293.211 181.673ZM295.744 198.44C293.785 198.094 292.273 197.21 291.206 195.785C290.147 194.321 289.773 192.709 290.084 190.951C290.403 189.152 291.284 187.783 292.728 186.842C294.213 185.909 295.954 185.618 297.953 185.971C299.951 186.323 301.487 187.192 302.561 188.576C303.635 189.961 304.012 191.552 303.694 193.351C303.382 195.109 302.477 196.495 300.979 197.508C299.487 198.482 297.742 198.792 295.744 198.44Z"/>
</mask>
<path d="M293.211 181.673C293.565 179.675 294.295 178.114 295.401 176.99C296.514 175.826 298.048 174.613 300.003 173.35C301.353 172.476 302.371 171.728 303.058 171.107C303.752 170.447 304.174 169.697 304.322 168.857C304.528 167.698 304.191 166.691 303.312 165.836C302.48 164.947 301.285 164.365 299.726 164.09C298.127 163.809 296.601 163.931 295.148 164.458C293.734 164.992 292.507 165.867 291.467 167.085L283.383 160.714C285.518 158.206 288.222 156.436 291.495 155.406C294.769 154.376 298.525 154.235 302.761 154.982C307.518 155.821 311.158 157.493 313.682 159.998C316.253 162.471 317.223 165.486 316.593 169.043C316.303 170.681 315.765 172.091 314.979 173.271C314.2 174.411 313.333 175.35 312.378 176.089C311.47 176.794 310.3 177.577 308.87 178.438C307.306 179.357 306.13 180.18 305.342 180.906C304.56 181.593 304.074 182.476 303.883 183.555L293.211 181.673ZM295.744 198.44C293.785 198.094 292.273 197.21 291.206 195.785C290.147 194.321 289.773 192.709 290.084 190.951C290.403 189.152 291.284 187.783 292.728 186.842C294.213 185.909 295.954 185.618 297.953 185.971C299.951 186.323 301.487 187.192 302.561 188.576C303.635 189.961 304.012 191.552 303.694 193.351C303.382 195.109 302.477 196.495 300.979 197.508C299.487 198.482 297.742 198.792 295.744 198.44Z" fill="white"/>
<path d="M293.211 181.673L292.707 181.584L292.618 182.088L293.122 182.177L293.211 181.673ZM295.401 176.99L295.766 177.349L295.771 177.343L295.401 176.99ZM300.003 173.35L300.28 173.78L300.281 173.78L300.003 173.35ZM303.058 171.107L303.401 171.487L303.411 171.478L303.058 171.107ZM303.312 165.836L302.938 166.185L302.946 166.194L302.955 166.202L303.312 165.836ZM295.148 164.458L294.973 163.977L294.967 163.979L295.148 164.458ZM291.467 167.085L291.15 167.487L291.536 167.791L291.856 167.417L291.467 167.085ZM283.383 160.714L282.994 160.383L282.649 160.788L283.066 161.116L283.383 160.714ZM291.495 155.406L291.649 155.894L291.495 155.406ZM313.682 159.998L313.321 160.362L313.327 160.367L313.682 159.998ZM314.979 173.271L315.401 173.559L315.405 173.554L314.979 173.271ZM312.378 176.089L312.065 175.684L312.064 175.685L312.378 176.089ZM308.87 178.438L309.129 178.879L309.134 178.876L308.87 178.438ZM305.342 180.906L305.679 181.291L305.688 181.282L305.342 180.906ZM303.883 183.555L303.794 184.058L304.298 184.147L304.387 183.644L303.883 183.555ZM291.206 195.785L290.791 196.085L290.796 196.092L291.206 195.785ZM292.728 186.842L292.456 186.409L292.449 186.414L292.728 186.842ZM302.561 188.576L302.156 188.89L302.561 188.576ZM300.979 197.508L301.258 197.937L301.265 197.932L300.979 197.508ZM293.715 181.762C294.056 179.836 294.751 178.38 295.766 177.348L295.036 176.631C293.839 177.847 293.074 179.513 292.707 181.584L293.715 181.762ZM295.771 177.343C296.847 176.218 298.345 175.029 300.28 173.78L299.725 172.921C297.75 174.196 296.181 175.434 295.031 176.636L295.771 177.343ZM300.281 173.78C301.64 172.899 302.685 172.134 303.401 171.487L302.715 170.728C302.058 171.322 301.066 172.052 299.724 172.921L300.281 173.78ZM303.411 171.478C304.174 170.751 304.656 169.906 304.826 168.946L303.819 168.769C303.691 169.487 303.331 170.142 302.706 170.737L303.411 171.478ZM304.826 168.946C305.063 167.612 304.663 166.437 303.669 165.469L302.955 166.202C303.719 166.946 303.993 167.785 303.819 168.769L304.826 168.946ZM303.686 165.486C302.758 164.495 301.45 163.875 299.815 163.587L299.637 164.594C301.119 164.856 302.202 165.399 302.938 166.185L303.686 165.486ZM299.815 163.587C298.133 163.29 296.516 163.418 294.973 163.977L295.322 164.939C296.687 164.444 298.122 164.327 299.637 164.594L299.815 163.587ZM294.967 163.979C293.468 164.545 292.171 165.474 291.078 166.753L291.856 167.417C292.844 166.261 294 165.438 295.328 164.936L294.967 163.979ZM291.784 166.683L283.7 160.312L283.066 161.116L291.15 167.487L291.784 166.683ZM283.773 161.046C285.842 158.614 288.463 156.897 291.649 155.894L291.342 154.918C287.98 155.976 285.193 157.798 282.994 160.383L283.773 161.046ZM291.649 155.894C294.827 154.894 298.496 154.749 302.672 155.486L302.851 154.478C298.553 153.72 294.712 153.858 291.342 154.918L291.649 155.894ZM302.672 155.486C307.362 156.313 310.894 157.951 313.321 160.362L314.043 159.635C311.422 157.034 307.674 155.329 302.851 154.478L302.672 155.486ZM313.327 160.367C315.773 162.72 316.69 165.563 316.089 168.954L317.097 169.132C317.756 165.409 316.732 162.222 314.037 159.63L313.327 160.367ZM316.089 168.954C315.809 170.535 315.294 171.876 314.553 172.988L315.405 173.554C316.236 172.306 316.797 170.828 317.097 169.132L316.089 168.954ZM314.556 172.983C313.803 174.085 312.972 174.983 312.065 175.684L312.69 176.493C313.694 175.718 314.596 174.738 315.401 173.559L314.556 172.983ZM312.064 175.685C311.177 176.374 310.026 177.145 308.607 177.999L309.134 178.876C310.574 178.009 311.762 177.215 312.691 176.493L312.064 175.685ZM308.611 177.997C307.034 178.924 305.822 179.768 304.995 180.53L305.688 181.282C306.437 180.592 307.578 179.79 309.129 178.879L308.611 177.997ZM305.004 180.522C304.13 181.29 303.59 182.279 303.379 183.466L304.387 183.644C304.559 182.672 304.99 181.896 305.679 181.29L305.004 180.522ZM303.972 183.051L293.3 181.169L293.122 182.177L303.794 184.058L303.972 183.051ZM295.833 197.936C293.986 197.61 292.595 196.786 291.616 195.478L290.796 196.092C291.95 197.633 293.584 198.579 295.655 198.944L295.833 197.936ZM291.621 195.485C290.641 194.131 290.301 192.66 290.588 191.04L289.58 190.862C289.244 192.759 289.652 194.51 290.792 196.085L291.621 195.485ZM290.588 191.04C290.883 189.371 291.689 188.129 293.007 187.271L292.449 186.414C290.878 187.437 289.922 188.933 289.58 190.862L290.588 191.04ZM293.001 187.275C294.36 186.42 295.969 186.141 297.863 186.475L298.042 185.467C295.939 185.096 294.065 185.398 292.456 186.409L293.001 187.275ZM297.863 186.475C299.758 186.809 301.173 187.621 302.156 188.89L302.965 188.263C301.802 186.762 300.144 185.838 298.042 185.467L297.863 186.475ZM302.156 188.89C303.138 190.155 303.484 191.599 303.19 193.262L304.198 193.439C304.54 191.506 304.132 189.766 302.965 188.263L302.156 188.89ZM303.19 193.262C302.903 194.882 302.078 196.148 300.692 197.085L301.265 197.932C302.877 196.842 303.862 195.336 304.198 193.439L303.19 193.262ZM300.699 197.08C299.332 197.972 297.723 198.269 295.833 197.936L295.655 198.944C297.762 199.315 299.643 198.991 301.258 197.937L300.699 197.08Z" fill="#202027" mask="url(#path-22-outside-6_14_3768)"/>
<rect x="0.202599" y="0.28958" width="105.961" height="141.448" rx="18.775" transform="matrix(0.984808 0.173648 -0.174411 0.984673 370.438 117.113)" fill="#BCEC30"/>
<rect x="0.202599" y="0.28958" width="105.961" height="141.448" rx="18.775" transform="matrix(0.984808 0.173648 -0.174411 0.984673 370.438 117.113)" stroke="#202027" stroke-width="0.5"/>
<rect x="0.202599" y="0.28958" width="105.961" height="141.448" rx="18.775" transform="matrix(0.984808 0.173648 -0.174411 0.984673 -99.2677 184.663)" fill="#BCEC30"/>
<rect x="0.202599" y="0.28958" width="105.961" height="141.448" rx="18.775" transform="matrix(0.984808 0.173648 -0.174411 0.984673 -99.2677 184.663)" stroke="#202027" stroke-width="0.5"/>
<rect x="0.202599" y="0.28958" width="105.961" height="141.448" rx="18.775" transform="matrix(0.984808 0.173648 -0.174411 0.984673 11.7303 204.235)" fill="#BCEC30"/>
<rect x="0.202599" y="0.28958" width="105.961" height="141.448" rx="18.775" transform="matrix(0.984808 0.173648 -0.174411 0.984673 11.7303 204.235)" stroke="#202027" stroke-width="0.5"/>
<mask id="path-27-outside-7_14_3768" maskUnits="userSpaceOnUse" x="28.4175" y="257.854" width="43.476" height="51.5463" fill="black">
<rect fill="white" x="28.4175" y="257.854" width="43.476" height="51.5463"/>
<path d="M45.5012 288.366C45.8551 286.368 46.585 284.807 47.6909 283.683C48.8038 282.519 50.3377 281.306 52.2925 280.044C53.6428 279.169 54.6614 278.421 55.3484 277.801C56.0425 277.14 56.4639 276.39 56.6125 275.551C56.8178 274.392 56.481 273.385 55.6021 272.529C54.7702 271.64 53.5749 271.059 52.016 270.784C50.4172 270.502 48.8911 270.624 47.4376 271.151C46.024 271.685 44.7972 272.561 43.7571 273.779L35.6733 267.408C37.8076 264.899 40.5116 263.13 43.7854 262.1C47.0593 261.07 50.8146 260.928 55.0514 261.675C59.8079 262.514 63.448 264.186 65.9719 266.692C68.5429 269.165 69.5134 272.179 68.8834 275.736C68.5931 277.375 68.055 278.784 67.2689 279.964C66.4898 281.105 65.6228 282.044 64.6676 282.782C63.7596 283.487 62.5904 284.27 61.1602 285.131C59.5959 286.05 58.4197 286.873 57.6316 287.6C56.8505 288.286 56.3643 289.169 56.1732 290.248L45.5012 288.366ZM48.034 305.133C46.0755 304.788 44.5629 303.903 43.4962 302.478C42.4366 301.014 42.0625 299.403 42.374 297.644C42.6925 295.846 43.574 294.476 45.0184 293.536C46.5027 292.602 48.2441 292.312 50.2426 292.664C52.2411 293.017 53.7772 293.885 54.851 295.27C55.9247 296.654 56.3024 298.246 55.9838 300.044C55.6723 301.802 54.7674 303.188 53.2689 304.202C51.7775 305.175 50.0325 305.486 48.034 305.133Z"/>
</mask>
<path d="M45.5012 288.366C45.8551 286.368 46.585 284.807 47.6909 283.683C48.8038 282.519 50.3377 281.306 52.2925 280.044C53.6428 279.169 54.6614 278.421 55.3484 277.801C56.0425 277.14 56.4639 276.39 56.6125 275.551C56.8178 274.392 56.481 273.385 55.6021 272.529C54.7702 271.64 53.5749 271.059 52.016 270.784C50.4172 270.502 48.8911 270.624 47.4376 271.151C46.024 271.685 44.7972 272.561 43.7571 273.779L35.6733 267.408C37.8076 264.899 40.5116 263.13 43.7854 262.1C47.0593 261.07 50.8146 260.928 55.0514 261.675C59.8079 262.514 63.448 264.186 65.9719 266.692C68.5429 269.165 69.5134 272.179 68.8834 275.736C68.5931 277.375 68.055 278.784 67.2689 279.964C66.4898 281.105 65.6228 282.044 64.6676 282.782C63.7596 283.487 62.5904 284.27 61.1602 285.131C59.5959 286.05 58.4197 286.873 57.6316 287.6C56.8505 288.286 56.3643 289.169 56.1732 290.248L45.5012 288.366ZM48.034 305.133C46.0755 304.788 44.5629 303.903 43.4962 302.478C42.4366 301.014 42.0625 299.403 42.374 297.644C42.6925 295.846 43.574 294.476 45.0184 293.536C46.5027 292.602 48.2441 292.312 50.2426 292.664C52.2411 293.017 53.7772 293.885 54.851 295.27C55.9247 296.654 56.3024 298.246 55.9838 300.044C55.6723 301.802 54.7674 303.188 53.2689 304.202C51.7775 305.175 50.0325 305.486 48.034 305.133Z" fill="white"/>
<path d="M45.5012 288.366L44.9974 288.277L44.9081 288.781L45.412 288.87L45.5012 288.366ZM47.6909 283.683L48.0556 284.042L48.0606 284.037L47.6909 283.683ZM52.2925 280.044L52.57 280.473L52.5706 280.473L52.2925 280.044ZM55.3484 277.801L55.6915 278.18L55.7011 278.171L55.3484 277.801ZM55.6021 272.529L55.2284 272.879L55.2365 272.887L55.245 272.896L55.6021 272.529ZM47.4376 271.151L47.2635 270.67L47.2571 270.673L47.4376 271.151ZM43.7571 273.779L43.4402 274.18L43.8265 274.485L44.1462 274.111L43.7571 273.779ZM35.6733 267.408L35.2836 267.076L34.9394 267.481L35.3563 267.809L35.6733 267.408ZM43.7854 262.1L43.9387 262.588L43.7854 262.1ZM65.9719 266.692L65.6112 267.055L65.6171 267.061L65.9719 266.692ZM67.2689 279.964L67.6914 280.253L67.6947 280.248L67.2689 279.964ZM64.6676 282.782L64.3548 282.377L64.3539 282.378L64.6676 282.782ZM61.1602 285.131L61.4193 285.572L61.4238 285.569L61.1602 285.131ZM57.6316 287.6L57.9693 287.984L57.9782 287.976L57.6316 287.6ZM56.1732 290.248L56.084 290.752L56.5878 290.841L56.6771 290.337L56.1732 290.248ZM43.4962 302.478L43.0815 302.779L43.0865 302.785L43.4962 302.478ZM45.0184 293.536L44.7461 293.103L44.7393 293.107L45.0184 293.536ZM54.851 295.27L54.4465 295.583L54.851 295.27ZM53.2689 304.202L53.5484 304.63L53.5554 304.625L53.2689 304.202ZM46.0051 288.455C46.3461 286.53 47.0406 285.073 48.0555 284.042L47.3263 283.325C46.1295 284.541 45.3642 286.207 44.9974 288.277L46.0051 288.455ZM48.0606 284.037C49.1367 282.911 50.6353 281.723 52.57 280.473L52.0151 279.614C50.0401 280.89 48.471 282.128 47.3212 283.33L48.0606 284.037ZM52.5706 280.473C53.9297 279.593 54.9746 278.828 55.6914 278.18L55.0055 277.421C54.3483 278.015 53.3559 278.745 52.0145 279.614L52.5706 280.473ZM55.7011 278.171C56.4641 277.445 56.9463 276.6 57.1164 275.64L56.1087 275.462C55.9814 276.18 55.6209 276.835 54.9957 277.43L55.7011 278.171ZM57.1164 275.64C57.3527 274.306 56.9533 273.13 55.9592 272.162L55.245 272.896C56.0087 273.639 56.283 274.478 56.1087 275.462L57.1164 275.64ZM55.9758 272.179C55.0483 271.189 53.7403 270.568 52.1053 270.28L51.9268 271.288C53.4094 271.549 54.4921 272.092 55.2284 272.879L55.9758 272.179ZM52.1053 270.28C50.4229 269.983 48.8056 270.111 47.2635 270.67L47.6116 271.632C48.9766 271.137 50.4116 271.02 51.9268 271.288L52.1053 270.28ZM47.2571 270.673C45.7579 271.239 44.4608 272.167 43.3681 273.447L44.1462 274.111C45.1337 272.954 46.2901 272.131 47.6181 271.63L47.2571 270.673ZM44.0741 273.377L35.9902 267.006L35.3563 267.809L43.4402 274.18L44.0741 273.377ZM36.0629 267.739C38.132 265.307 40.7528 263.59 43.9387 262.588L43.6322 261.612C40.2704 262.669 37.4831 264.491 35.2836 267.076L36.0629 267.739ZM43.9387 262.588C47.1167 261.588 50.7862 261.443 54.9622 262.179L55.1407 261.172C50.843 260.414 47.0018 260.552 43.6322 261.612L43.9387 262.588ZM54.9622 262.179C59.6518 263.006 63.1836 264.645 65.6113 267.055L66.3326 266.329C63.7125 263.728 59.9639 262.022 55.1407 261.172L54.9622 262.179ZM65.6171 267.061C68.0634 269.413 68.9802 272.256 68.3795 275.647L69.3872 275.825C70.0465 272.103 69.0224 268.916 66.3268 266.323L65.6171 267.061ZM68.3795 275.647C68.0995 277.228 67.5838 278.569 66.843 279.681L67.6947 280.248C68.5261 278.999 69.0868 277.521 69.3872 275.825L68.3795 275.647ZM66.8464 279.676C66.0934 280.778 65.262 281.676 64.3548 282.377L64.9804 283.187C65.9836 282.411 66.8863 281.431 67.6913 280.253L66.8464 279.676ZM64.3539 282.378C63.4672 283.067 62.3164 283.838 60.8966 284.693L61.4238 285.569C62.8644 284.702 64.0519 283.908 64.9814 283.186L64.3539 282.378ZM60.9011 284.69C59.3238 285.617 58.112 286.461 57.2849 287.224L57.9782 287.976C58.7275 287.285 59.8681 286.484 61.4193 285.572L60.9011 284.69ZM57.2939 287.216C56.4205 287.983 55.8796 288.972 55.6694 290.159L56.6771 290.337C56.8491 289.366 57.2804 288.589 57.9692 287.984L57.2939 287.216ZM56.2624 289.744L45.5904 287.863L45.412 288.87L56.084 290.752L56.2624 289.744ZM48.1233 304.629C46.2765 304.304 44.8854 303.48 43.9059 302.172L43.0865 302.785C44.2404 304.326 45.8745 305.272 47.9448 305.637L48.1233 304.629ZM43.9109 302.178C42.9313 300.825 42.5909 299.353 42.8778 297.733L41.8702 297.555C41.5342 299.452 41.9419 301.203 43.0815 302.778L43.9109 302.178ZM42.8778 297.733C43.1734 296.065 43.9795 294.823 45.2974 293.964L44.7393 293.107C43.1685 294.13 42.2117 295.627 41.8702 297.555L42.8778 297.733ZM45.2906 293.969C46.6505 293.114 48.2589 292.834 50.1534 293.168L50.3318 292.16C48.2293 291.79 46.3548 292.091 44.7461 293.103L45.2906 293.969ZM50.1534 293.168C52.0478 293.502 53.4627 294.315 54.4465 295.583L55.2554 294.956C54.0917 293.455 52.4344 292.531 50.3318 292.16L50.1534 293.168ZM54.4465 295.583C55.4277 296.848 55.7745 298.292 55.48 299.955L56.4877 300.133C56.8302 298.199 56.4218 296.46 55.2554 294.956L54.4465 295.583ZM55.48 299.955C55.193 301.575 54.3677 302.841 52.9824 303.778L53.5554 304.625C55.167 303.535 56.1517 302.03 56.4877 300.133L55.48 299.955ZM52.9894 303.773C51.6222 304.666 50.013 304.963 48.1233 304.629L47.9448 305.637C50.052 306.009 51.9327 305.684 53.5484 304.63L52.9894 303.773Z" fill="#202027" mask="url(#path-27-outside-7_14_3768)"/>
<rect x="0.202599" y="0.28958" width="105.961" height="141.448" rx="18.775" transform="matrix(0.984808 0.173648 -0.174411 0.984673 122.727 223.807)" fill="#BCEC30"/>
<rect x="0.202599" y="0.28958" width="105.961" height="141.448" rx="18.775" transform="matrix(0.984808 0.173648 -0.174411 0.984673 122.727 223.807)" stroke="#202027" stroke-width="0.5"/>
<mask id="path-30-outside-8_14_3768" maskUnits="userSpaceOnUse" x="139.415" y="277.426" width="43.476" height="51.5463" fill="black">
<rect fill="white" x="139.415" y="277.426" width="43.476" height="51.5463"/>
<path d="M156.498 307.938C156.852 305.94 157.582 304.379 158.688 303.255C159.801 302.091 161.335 300.878 163.29 299.616C164.64 298.741 165.658 297.993 166.345 297.373C167.04 296.712 167.461 295.962 167.61 295.123C167.815 293.964 167.478 292.957 166.599 292.101C165.767 291.212 164.572 290.631 163.013 290.356C161.414 290.074 159.888 290.196 158.435 290.723C157.021 291.257 155.794 292.133 154.754 293.351L146.67 286.98C148.805 284.471 151.509 282.702 154.783 281.672C158.056 280.642 161.812 280.5 166.049 281.247C170.805 282.086 174.445 283.758 176.969 286.264C179.54 288.737 180.51 291.751 179.88 295.308C179.59 296.947 179.052 298.356 178.266 299.536C177.487 300.677 176.62 301.616 175.665 302.354C174.757 303.059 173.587 303.842 172.157 304.703C170.593 305.622 169.417 306.445 168.629 307.172C167.848 307.858 167.361 308.741 167.17 309.82L156.498 307.938ZM159.031 324.705C157.073 324.36 155.56 323.475 154.493 322.05C153.434 320.586 153.06 318.975 153.371 317.216C153.69 315.418 154.571 314.048 156.015 313.108C157.5 312.174 159.241 311.884 161.24 312.236C163.238 312.589 164.774 313.457 165.848 314.842C166.922 316.226 167.299 317.818 166.981 319.616C166.669 321.374 165.764 322.76 164.266 323.774C162.775 324.747 161.03 325.058 159.031 324.705Z"/>
</mask>
<path d="M156.498 307.938C156.852 305.94 157.582 304.379 158.688 303.255C159.801 302.091 161.335 300.878 163.29 299.616C164.64 298.741 165.658 297.993 166.345 297.373C167.04 296.712 167.461 295.962 167.61 295.123C167.815 293.964 167.478 292.957 166.599 292.101C165.767 291.212 164.572 290.631 163.013 290.356C161.414 290.074 159.888 290.196 158.435 290.723C157.021 291.257 155.794 292.133 154.754 293.351L146.67 286.98C148.805 284.471 151.509 282.702 154.783 281.672C158.056 280.642 161.812 280.5 166.049 281.247C170.805 282.086 174.445 283.758 176.969 286.264C179.54 288.737 180.51 291.751 179.88 295.308C179.59 296.947 179.052 298.356 178.266 299.536C177.487 300.677 176.62 301.616 175.665 302.354C174.757 303.059 173.587 303.842 172.157 304.703C170.593 305.622 169.417 306.445 168.629 307.172C167.848 307.858 167.361 308.741 167.17 309.82L156.498 307.938ZM159.031 324.705C157.073 324.36 155.56 323.475 154.493 322.05C153.434 320.586 153.06 318.975 153.371 317.216C153.69 315.418 154.571 314.048 156.015 313.108C157.5 312.174 159.241 311.884 161.24 312.236C163.238 312.589 164.774 313.457 165.848 314.842C166.922 316.226 167.299 317.818 166.981 319.616C166.669 321.374 165.764 322.76 164.266 323.774C162.775 324.747 161.03 325.058 159.031 324.705Z" fill="white"/>
<path d="M156.498 307.938L155.994 307.849L155.905 308.353L156.409 308.442L156.498 307.938ZM158.688 303.255L159.053 303.614L159.058 303.609L158.688 303.255ZM163.29 299.616L163.567 300.045L163.568 300.045L163.29 299.616ZM166.345 297.373L166.689 297.752L166.698 297.743L166.345 297.373ZM166.599 292.101L166.225 292.451L166.234 292.459L166.242 292.468L166.599 292.101ZM158.435 290.723L158.261 290.242L158.254 290.245L158.435 290.723ZM154.754 293.351L154.437 293.752L154.824 294.057L155.143 293.683L154.754 293.351ZM146.67 286.98L146.281 286.648L145.937 287.053L146.353 287.381L146.67 286.98ZM154.783 281.672L154.936 282.16L154.783 281.672ZM176.969 286.264L176.608 286.627L176.614 286.633L176.969 286.264ZM178.266 299.536L178.688 299.825L178.692 299.82L178.266 299.536ZM175.665 302.354L175.352 301.949L175.351 301.95L175.665 302.354ZM172.157 304.703L172.416 305.144L172.421 305.141L172.157 304.703ZM168.629 307.172L168.966 307.556L168.975 307.548L168.629 307.172ZM167.17 309.82L167.081 310.324L167.585 310.413L167.674 309.909L167.17 309.82ZM154.493 322.05L154.079 322.351L154.084 322.357L154.493 322.05ZM156.015 313.108L155.743 312.675L155.736 312.679L156.015 313.108ZM165.848 314.842L165.444 315.155L165.848 314.842ZM164.266 323.774L164.545 324.202L164.552 324.197L164.266 323.774ZM157.002 308.027C157.343 306.102 158.038 304.645 159.053 303.614L158.323 302.897C157.127 304.113 156.361 305.779 155.994 307.849L157.002 308.027ZM159.058 303.609C160.134 302.483 161.632 301.295 163.567 300.045L163.012 299.186C161.037 300.462 159.468 301.7 158.318 302.902L159.058 303.609ZM163.568 300.045C164.927 299.165 165.972 298.4 166.688 297.752L166.003 296.993C165.345 297.587 164.353 298.317 163.012 299.186L163.568 300.045ZM166.698 297.743C167.461 297.017 167.943 296.172 168.113 295.212L167.106 295.034C166.978 295.752 166.618 296.407 165.993 297.002L166.698 297.743ZM168.113 295.212C168.35 293.878 167.95 292.702 166.956 291.734L166.242 292.468C167.006 293.211 167.28 294.05 167.106 295.034L168.113 295.212ZM166.973 291.751C166.045 290.761 164.737 290.14 163.102 289.852L162.924 290.86C164.406 291.121 165.489 291.664 166.225 292.451L166.973 291.751ZM163.102 289.852C161.42 289.555 159.803 289.683 158.261 290.242L158.609 291.204C159.974 290.709 161.409 290.592 162.924 290.86L163.102 289.852ZM158.254 290.245C156.755 290.811 155.458 291.739 154.365 293.019L155.143 293.683C156.131 292.526 157.287 291.703 158.615 291.202L158.254 290.245ZM155.071 292.949L146.987 286.578L146.353 287.381L154.437 293.752L155.071 292.949ZM147.06 287.311C149.129 284.879 151.75 283.162 154.936 282.16L154.629 281.184C151.268 282.241 148.48 284.063 146.281 286.648L147.06 287.311ZM154.936 282.16C158.114 281.16 161.783 281.015 165.959 281.751L166.138 280.744C161.84 279.986 157.999 280.124 154.629 281.184L154.936 282.16ZM165.959 281.751C170.649 282.578 174.181 284.217 176.608 286.627L177.33 285.901C174.71 283.3 170.961 281.594 166.138 280.744L165.959 281.751ZM176.614 286.633C179.06 288.985 179.977 291.828 179.377 295.219L180.384 295.397C181.044 291.675 180.02 288.488 177.324 285.895L176.614 286.633ZM179.377 295.219C179.097 296.8 178.581 298.141 177.84 299.253L178.692 299.82C179.523 298.571 180.084 297.093 180.384 295.397L179.377 295.219ZM177.843 299.248C177.09 300.35 176.259 301.248 175.352 301.949L175.977 302.759C176.981 301.983 177.883 301.003 178.688 299.825L177.843 299.248ZM175.351 301.95C174.464 302.639 173.313 303.41 171.894 304.265L172.421 305.141C173.861 304.274 175.049 303.48 175.978 302.758L175.351 301.95ZM171.898 304.262C170.321 305.189 169.109 306.033 168.282 306.796L168.975 307.548C169.725 306.857 170.865 306.056 172.416 305.144L171.898 304.262ZM168.291 306.788C167.418 307.555 166.877 308.544 166.666 309.731L167.674 309.909C167.846 308.938 168.277 308.161 168.966 307.556L168.291 306.788ZM167.26 309.316L156.588 307.435L156.409 308.442L167.081 310.324L167.26 309.316ZM159.12 324.201C157.274 323.876 155.882 323.052 154.903 321.744L154.084 322.357C155.237 323.898 156.872 324.844 158.942 325.209L159.12 324.201ZM154.908 321.75C153.928 320.397 153.588 318.925 153.875 317.305L152.867 317.127C152.531 319.024 152.939 320.775 154.079 322.35L154.908 321.75ZM153.875 317.305C154.17 315.637 154.977 314.395 156.294 313.536L155.736 312.679C154.166 313.702 153.209 315.199 152.867 317.127L153.875 317.305ZM156.288 313.541C157.648 312.686 159.256 312.406 161.15 312.74L161.329 311.732C159.226 311.362 157.352 311.663 155.743 312.675L156.288 313.541ZM161.15 312.74C163.045 313.074 164.46 313.887 165.444 315.155L166.253 314.528C165.089 313.027 163.431 312.103 161.329 311.732L161.15 312.74ZM165.444 315.155C166.425 316.42 166.772 317.864 166.477 319.527L167.485 319.705C167.827 317.771 167.419 316.032 166.253 314.528L165.444 315.155ZM166.477 319.527C166.19 321.147 165.365 322.413 163.979 323.35L164.552 324.197C166.164 323.107 167.149 321.602 167.485 319.705L166.477 319.527ZM163.986 323.345C162.619 324.238 161.01 324.535 159.12 324.201L158.942 325.209C161.049 325.581 162.93 325.256 164.545 324.202L163.986 323.345Z" fill="#202027" mask="url(#path-30-outside-8_14_3768)"/>
<rect x="0.202599" y="0.28958" width="105.961" height="141.448" rx="18.775" transform="matrix(0.984808 0.173648 -0.174411 0.984673 233.725 243.379)" fill="#BCEC30"/>
<rect x="0.202599" y="0.28958" width="105.961" height="141.448" rx="18.775" transform="matrix(0.984808 0.173648 -0.174411 0.984673 233.725 243.379)" stroke="#202027" stroke-width="0.5"/>
<mask id="path-33-outside-9_14_3768" maskUnits="userSpaceOnUse" x="254.645" y="302.036" width="35.9974" height="41.6423" fill="black">
<rect fill="white" x="254.645" y="302.036" width="35.9974" height="41.6423"/>
<path d="M268.584 327.194C268.87 325.582 269.459 324.323 270.351 323.416C271.249 322.477 272.486 321.499 274.063 320.48C275.152 319.774 275.974 319.171 276.528 318.67C277.088 318.137 277.428 317.532 277.548 316.855C277.714 315.92 277.442 315.108 276.733 314.417C276.062 313.701 275.098 313.231 273.84 313.01C272.55 312.782 271.319 312.881 270.146 313.306C269.006 313.737 268.016 314.443 267.177 315.426L260.656 310.286C262.377 308.262 264.559 306.835 267.2 306.004C269.841 305.173 272.871 305.059 276.289 305.661C280.126 306.338 283.063 307.687 285.099 309.708C287.173 311.703 287.956 314.135 287.448 317.005C287.214 318.327 286.779 319.464 286.145 320.416C285.517 321.336 284.817 322.094 284.047 322.689C283.314 323.258 282.371 323.89 281.217 324.584C279.955 325.326 279.006 325.99 278.37 326.576C277.74 327.13 277.348 327.842 277.194 328.712L268.584 327.194ZM270.628 340.721C269.048 340.442 267.827 339.728 266.967 338.579C266.112 337.398 265.81 336.098 266.061 334.679C266.318 333.228 267.029 332.124 268.195 331.365C269.392 330.612 270.797 330.377 272.409 330.662C274.022 330.946 275.261 331.647 276.127 332.763C276.993 333.88 277.298 335.164 277.041 336.615C276.79 338.034 276.06 339.152 274.851 339.969C273.648 340.755 272.24 341.005 270.628 340.721Z"/>
</mask>
<path d="M268.584 327.194C268.87 325.582 269.459 324.323 270.351 323.416C271.249 322.477 272.486 321.499 274.063 320.48C275.152 319.774 275.974 319.171 276.528 318.67C277.088 318.137 277.428 317.532 277.548 316.855C277.714 315.92 277.442 315.108 276.733 314.417C276.062 313.701 275.098 313.231 273.84 313.01C272.55 312.782 271.319 312.881 270.146 313.306C269.006 313.737 268.016 314.443 267.177 315.426L260.656 310.286C262.377 308.262 264.559 306.835 267.2 306.004C269.841 305.173 272.871 305.059 276.289 305.661C280.126 306.338 283.063 307.687 285.099 309.708C287.173 311.703 287.956 314.135 287.448 317.005C287.214 318.327 286.779 319.464 286.145 320.416C285.517 321.336 284.817 322.094 284.047 322.689C283.314 323.258 282.371 323.89 281.217 324.584C279.955 325.326 279.006 325.99 278.37 326.576C277.74 327.13 277.348 327.842 277.194 328.712L268.584 327.194ZM270.628 340.721C269.048 340.442 267.827 339.728 266.967 338.579C266.112 337.398 265.81 336.098 266.061 334.679C266.318 333.228 267.029 332.124 268.195 331.365C269.392 330.612 270.797 330.377 272.409 330.662C274.022 330.946 275.261 331.647 276.127 332.763C276.993 333.88 277.298 335.164 277.041 336.615C276.79 338.034 276.06 339.152 274.851 339.969C273.648 340.755 272.24 341.005 270.628 340.721Z" fill="white"/>
<path d="M268.584 327.194L268.08 327.105L267.991 327.609L268.495 327.698L268.584 327.194ZM270.351 323.416L270.715 323.775L270.72 323.77L270.351 323.416ZM274.063 320.48L274.341 320.91L274.341 320.909L274.063 320.48ZM276.528 318.67L276.871 319.05L276.881 319.041L276.528 318.67ZM276.733 314.417L276.359 314.767L276.367 314.776L276.376 314.784L276.733 314.417ZM270.146 313.306L269.972 312.825L269.966 312.827L270.146 313.306ZM267.177 315.426L266.86 315.827L267.247 316.132L267.566 315.758L267.177 315.426ZM260.656 310.286L260.266 309.955L259.922 310.359L260.339 310.688L260.656 310.286ZM267.2 306.004L267.353 306.492L267.353 306.492L267.2 306.004ZM285.099 309.708L284.738 310.072L284.744 310.077L285.099 309.708ZM286.145 320.416L286.568 320.704L286.571 320.699L286.145 320.416ZM284.047 322.689L283.734 322.285L283.733 322.285L284.047 322.689ZM281.217 324.584L281.476 325.025L281.481 325.022L281.217 324.584ZM278.37 326.576L278.708 326.96L278.717 326.952L278.37 326.576ZM277.194 328.712L277.105 329.216L277.608 329.305L277.698 328.801L277.194 328.712ZM266.967 338.579L266.552 338.879L266.557 338.886L266.967 338.579ZM268.195 331.365L267.922 330.932L267.916 330.936L268.195 331.365ZM276.127 332.763L275.723 333.077L276.127 332.763ZM274.851 339.969L275.13 340.398L275.137 340.393L274.851 339.969ZM269.088 327.283C269.361 325.744 269.914 324.589 270.715 323.775L269.986 323.058C269.003 324.057 268.379 325.421 268.08 327.105L269.088 327.283ZM270.72 323.77C271.581 322.869 272.784 321.915 274.341 320.91L273.786 320.05C272.188 321.082 270.916 322.085 269.981 323.063L270.72 323.77ZM274.341 320.909C275.439 320.198 276.287 319.577 276.871 319.05L276.186 318.291C275.661 318.765 274.866 319.351 273.785 320.051L274.341 320.909ZM276.881 319.041C277.51 318.442 277.911 317.742 278.052 316.944L277.044 316.767C276.946 317.323 276.667 317.833 276.176 318.3L276.881 319.041ZM278.052 316.944C278.249 315.834 277.914 314.853 277.09 314.051L276.376 314.784C276.97 315.362 277.179 316.007 277.044 316.767L278.052 316.944ZM277.107 314.068C276.34 313.249 275.263 312.741 273.929 312.506L273.751 313.513C274.932 313.722 275.784 314.152 276.359 314.767L277.107 314.068ZM273.929 312.506C272.556 312.264 271.233 312.368 269.972 312.825L270.32 313.787C271.404 313.394 272.545 313.301 273.751 313.513L273.929 312.506ZM269.966 312.827C268.74 313.29 267.68 314.05 266.788 315.094L267.566 315.758C268.353 314.837 269.272 314.183 270.327 313.784L269.966 312.827ZM267.494 315.024L260.972 309.884L260.339 310.688L266.86 315.827L267.494 315.024ZM261.045 310.617C262.702 308.67 264.8 307.295 267.353 306.492L267.047 305.516C264.318 306.374 262.053 307.854 260.266 309.955L261.045 310.617ZM267.353 306.492C269.899 305.691 272.842 305.573 276.2 306.165L276.378 305.158C272.899 304.544 269.784 304.655 267.047 305.516L267.353 306.492ZM276.2 306.165C279.97 306.83 282.798 308.146 284.738 310.072L285.46 309.345C283.327 307.228 280.282 305.846 276.378 305.158L276.2 306.165ZM284.744 310.077C286.694 311.952 287.423 314.212 286.944 316.916L287.952 317.094C288.489 314.059 287.653 311.454 285.454 309.34L284.744 310.077ZM286.944 316.916C286.72 318.18 286.308 319.249 285.719 320.133L286.571 320.699C287.251 319.679 287.707 318.473 287.952 317.094L286.944 316.916ZM285.723 320.128C285.12 321.01 284.456 321.726 283.734 322.285L284.359 323.094C285.178 322.461 285.913 321.662 286.568 320.704L285.723 320.128ZM283.733 322.285C283.022 322.838 282.097 323.458 280.953 324.146L281.481 325.022C282.645 324.322 283.606 323.679 284.36 323.093L283.733 322.285ZM280.958 324.143C279.683 324.893 278.698 325.578 278.024 326.2L278.717 326.952C279.314 326.402 280.227 325.759 281.476 325.025L280.958 324.143ZM278.033 326.192C277.31 326.827 276.863 327.645 276.69 328.624L277.698 328.801C277.833 328.038 278.17 327.433 278.708 326.96L278.033 326.192ZM277.283 328.209L268.673 326.691L268.495 327.698L277.105 329.216L277.283 328.209ZM270.717 340.217C269.249 339.958 268.15 339.305 267.376 338.272L266.557 338.886C267.505 340.152 268.846 340.926 270.538 341.225L270.717 340.217ZM267.381 338.279C266.606 337.208 266.338 336.048 266.565 334.768L265.557 334.59C265.282 336.147 265.617 337.587 266.552 338.879L267.381 338.279ZM266.565 334.768C266.799 333.447 267.435 332.47 268.474 331.793L267.916 330.936C266.624 331.777 265.838 333.009 265.557 334.59L266.565 334.768ZM268.467 331.798C269.54 331.123 270.812 330.899 272.32 331.165L272.499 330.158C270.782 329.855 269.244 330.101 267.922 330.932L268.467 331.798ZM272.32 331.165C273.828 331.431 274.946 332.076 275.723 333.077L276.532 332.45C275.575 331.217 274.215 330.46 272.499 330.158L272.32 331.165ZM275.723 333.077C276.496 334.075 276.77 335.211 276.537 336.526L277.545 336.704C277.826 335.118 277.49 333.686 276.532 332.45L275.723 333.077ZM276.537 336.526C276.31 337.807 275.66 338.805 274.564 339.546L275.137 340.393C276.459 339.499 277.269 338.261 277.545 336.704L276.537 336.526ZM274.571 339.541C273.492 340.245 272.22 340.482 270.717 340.217L270.538 341.225C272.259 341.528 273.803 341.264 275.13 340.398L274.571 339.541Z" fill="#202027" mask="url(#path-33-outside-9_14_3768)"/>
<rect x="0.202599" y="0.28958" width="105.961" height="141.448" rx="18.775" transform="matrix(0.984808 0.173648 -0.174411 0.984673 344.724 262.951)" fill="#BCEC30"/>
<rect x="0.202599" y="0.28958" width="105.961" height="141.448" rx="18.775" transform="matrix(0.984808 0.173648 -0.174411 0.984673 344.724 262.951)" stroke="#202027" stroke-width="0.5"/>
<g filter="url(#filter0_d_14_3768)">
<rect width="138.133" height="184.177" rx="19.025" transform="matrix(0.984808 0.173648 -0.174411 0.984673 136.54 54.3777)" fill="#E1FF8F"/>
<rect x="-0.202599" y="-0.28958" width="138.633" height="184.677" rx="19.275" transform="matrix(0.984808 0.173648 -0.174411 0.984673 136.486 54.4085)" stroke="#202027" stroke-width="0.5"/>
<rect x="-0.202599" y="-0.28958" width="138.633" height="184.677" rx="19.275" transform="matrix(0.984808 0.173648 -0.174411 0.984673 136.486 54.4085)" stroke="black" stroke-opacity="0.2" stroke-width="0.5"/>
</g>
<mask id="path-38-outside-10_14_3768" maskUnits="userSpaceOnUse" x="157.024" y="123.208" width="57.9098" height="68.4002" fill="black">
<rect fill="white" x="157.024" y="123.208" width="57.9098" height="68.4002"/>
<path d="M180.179 164.307C180.65 161.642 181.624 159.561 183.098 158.062C184.582 156.511 186.627 154.893 189.234 153.21C191.034 152.043 192.392 151.047 193.308 150.219C194.234 149.338 194.795 148.338 194.994 147.219C195.267 145.674 194.818 144.331 193.646 143.19C192.537 142.005 190.943 141.23 188.865 140.863C186.733 140.487 184.698 140.651 182.76 141.353C180.876 142.065 179.24 143.232 177.853 144.856L167.075 136.362C169.92 133.017 173.526 130.658 177.891 129.284C182.256 127.911 187.263 127.722 192.912 128.718C199.254 129.837 204.108 132.066 207.473 135.407C210.901 138.704 212.195 142.724 211.355 147.466C210.968 149.651 210.25 151.53 209.202 153.104C208.163 154.624 207.007 155.877 205.734 156.861C204.523 157.801 202.964 158.845 201.057 159.993C198.972 161.219 197.403 162.316 196.352 163.284C195.311 164.2 194.663 165.377 194.408 166.816L180.179 164.307ZM183.556 186.662C180.944 186.202 178.927 185.022 177.505 183.123C176.092 181.17 175.594 179.022 176.009 176.677C176.434 174.279 177.609 172.453 179.535 171.199C181.514 169.955 183.836 169.567 186.5 170.037C189.165 170.507 191.213 171.665 192.645 173.511C194.077 175.357 194.58 177.479 194.155 179.877C193.74 182.221 192.533 184.069 190.535 185.42C188.547 186.718 186.22 187.132 183.556 186.662Z"/>
</mask>
<path d="M180.179 164.307C180.65 161.642 181.624 159.561 183.098 158.062C184.582 156.511 186.627 154.893 189.234 153.21C191.034 152.043 192.392 151.047 193.308 150.219C194.234 149.338 194.795 148.338 194.994 147.219C195.267 145.674 194.818 144.331 193.646 143.19C192.537 142.005 190.943 141.23 188.865 140.863C186.733 140.487 184.698 140.651 182.76 141.353C180.876 142.065 179.24 143.232 177.853 144.856L167.075 136.362C169.92 133.017 173.526 130.658 177.891 129.284C182.256 127.911 187.263 127.722 192.912 128.718C199.254 129.837 204.108 132.066 207.473 135.407C210.901 138.704 212.195 142.724 211.355 147.466C210.968 149.651 210.25 151.53 209.202 153.104C208.163 154.624 207.007 155.877 205.734 156.861C204.523 157.801 202.964 158.845 201.057 159.993C198.972 161.219 197.403 162.316 196.352 163.284C195.311 164.2 194.663 165.377 194.408 166.816L180.179 164.307ZM183.556 186.662C180.944 186.202 178.927 185.022 177.505 183.123C176.092 181.17 175.594 179.022 176.009 176.677C176.434 174.279 177.609 172.453 179.535 171.199C181.514 169.955 183.836 169.567 186.5 170.037C189.165 170.507 191.213 171.665 192.645 173.511C194.077 175.357 194.58 177.479 194.155 179.877C193.74 182.221 192.533 184.069 190.535 185.42C188.547 186.718 186.22 187.132 183.556 186.662Z" fill="white"/>
<path d="M180.179 164.307L179.554 164.196L179.443 164.821L180.068 164.931L180.179 164.307ZM183.098 158.062L183.55 158.507L183.556 158.5L183.098 158.062ZM189.234 153.21L189.578 153.742L189.578 153.742L189.234 153.21ZM193.308 150.219L193.733 150.689L193.739 150.684L193.745 150.678L193.308 150.219ZM193.646 143.19L193.183 143.623L193.193 143.634L193.204 143.644L193.646 143.19ZM182.76 141.353L182.545 140.757L182.537 140.76L182.76 141.353ZM177.853 144.856L177.46 145.354L177.939 145.732L178.335 145.268L177.853 144.856ZM167.075 136.362L166.592 135.951L166.165 136.452L166.682 136.86L167.075 136.362ZM177.891 129.284L178.081 129.889L178.081 129.889L177.891 129.284ZM207.473 135.407L207.026 135.857L207.033 135.864L207.473 135.407ZM209.202 153.104L209.726 153.461L209.73 153.455L209.202 153.104ZM205.734 156.861L205.346 156.359L205.345 156.36L205.734 156.861ZM201.057 159.993L201.378 160.539L201.384 160.536L201.057 159.993ZM196.352 163.284L196.771 163.76L196.777 163.756L196.782 163.75L196.352 163.284ZM194.408 166.816L194.297 167.44L194.922 167.55L195.032 166.926L194.408 166.816ZM177.505 183.123L176.991 183.495L176.997 183.503L177.505 183.123ZM179.535 171.199L179.197 170.662L179.189 170.668L179.535 171.199ZM192.645 173.511L192.144 173.9L192.144 173.9L192.645 173.511ZM190.535 185.42L190.882 185.951L190.891 185.945L190.535 185.42ZM180.803 164.417C181.259 161.843 182.188 159.891 183.55 158.507L182.646 157.618C181.059 159.231 180.042 161.442 179.554 164.196L180.803 164.417ZM183.556 158.5C184.995 156.997 186.996 155.41 189.578 153.742L188.89 152.677C186.258 154.377 184.17 156.025 182.64 157.624L183.556 158.5ZM189.578 153.742C191.39 152.568 192.78 151.55 193.733 150.689L192.883 149.749C192.004 150.543 190.678 151.518 188.889 152.678L189.578 153.742ZM193.745 150.678C194.756 149.716 195.393 148.598 195.618 147.329L194.369 147.109C194.197 148.078 193.711 148.96 192.871 149.76L193.745 150.678ZM195.618 147.329C195.93 145.567 195.404 144.015 194.089 142.736L193.204 143.644C194.233 144.646 194.604 145.781 194.369 147.109L195.618 147.329ZM194.11 142.757C192.882 141.445 191.149 140.622 188.976 140.239L188.754 141.488C190.738 141.838 192.193 142.565 193.183 143.623L194.11 142.757ZM188.976 140.239C186.74 139.845 184.592 140.015 182.545 140.757L182.976 141.949C184.804 141.286 186.726 141.13 188.754 141.488L188.976 140.239ZM182.537 140.76C180.546 141.512 178.823 142.745 177.371 144.445L178.335 145.268C179.657 143.72 181.206 142.618 182.984 141.946L182.537 140.76ZM178.246 144.358L167.468 135.864L166.682 136.86L177.46 145.354L178.246 144.358ZM167.558 136.772C170.323 133.522 173.825 131.228 178.081 129.889L177.701 128.68C173.227 130.087 169.518 132.511 166.592 135.951L167.558 136.772ZM178.081 129.889C182.327 128.553 187.228 128.36 192.802 129.343L193.023 128.094C187.298 127.085 182.185 127.269 177.701 128.68L178.081 129.889ZM192.802 129.343C199.061 130.447 203.78 132.635 207.026 135.857L207.92 134.957C204.435 131.498 199.448 129.227 193.023 128.094L192.802 129.343ZM207.033 135.864C210.306 139.013 211.534 142.819 210.73 147.356L211.979 147.577C212.856 142.629 211.495 138.396 207.913 134.95L207.033 135.864ZM210.73 147.356C210.356 149.47 209.666 151.264 208.674 152.753L209.73 153.455C210.834 151.797 211.58 149.833 211.979 147.577L210.73 147.356ZM208.678 152.747C207.672 154.22 206.56 155.421 205.346 156.359L206.122 157.362C207.455 156.332 208.655 155.029 209.726 153.461L208.678 152.747ZM205.345 156.36C204.161 157.28 202.625 158.31 200.73 159.45L201.384 160.536C203.304 159.381 204.885 158.323 206.123 157.362L205.345 156.36ZM200.736 159.446C198.634 160.681 197.022 161.805 195.923 162.818L196.782 163.75C197.785 162.826 199.309 161.756 201.378 160.539L200.736 159.446ZM195.934 162.808C194.778 163.824 194.062 165.133 193.783 166.705L195.032 166.926C195.264 165.62 195.844 164.575 196.771 163.76L195.934 162.808ZM194.519 166.191L180.289 163.682L180.068 164.931L194.297 167.44L194.519 166.191ZM183.666 186.038C181.193 185.602 179.327 184.497 178.013 182.742L176.997 183.503C178.528 185.547 180.695 186.802 183.445 187.287L183.666 186.038ZM178.019 182.751C176.706 180.935 176.249 178.96 176.633 176.787L175.384 176.567C174.939 179.083 175.479 181.405 176.991 183.495L178.019 182.751ZM176.633 176.787C177.03 174.55 178.112 172.882 179.881 171.73L179.189 170.668C177.106 172.024 175.838 174.008 175.384 176.567L176.633 176.787ZM179.872 171.736C181.697 170.588 183.854 170.214 186.39 170.662L186.611 169.413C183.817 168.92 181.331 169.321 179.197 170.663L179.872 171.736ZM186.39 170.662C188.926 171.109 190.823 172.197 192.144 173.9L193.146 173.122C191.603 171.132 189.405 169.905 186.611 169.413L186.39 170.662ZM192.144 173.9C193.46 175.598 193.926 177.537 193.531 179.767L194.78 179.987C195.234 177.421 194.693 175.116 193.146 173.122L192.144 173.9ZM193.531 179.767C193.146 181.94 192.038 183.639 190.18 184.895L190.891 185.945C193.029 184.499 194.334 182.503 194.78 179.987L193.531 179.767ZM190.189 184.889C188.354 186.087 186.196 186.484 183.666 186.038L183.445 187.287C186.244 187.78 188.739 187.35 190.882 185.951L190.189 184.889Z" fill="#202027" mask="url(#path-38-outside-10_14_3768)"/>
</g>
<defs>
<filter id="filter0_d_14_3768" x="62.4368" y="27.6624" width="252.119" height="289.303" filterUnits="userSpaceOnUse" color-interpolation-filters="sRGB">
<feFlood flood-opacity="0" result="BackgroundImageFix"/>
<feColorMatrix in="SourceAlpha" type="matrix" values="0 0 0 0 0 0 0 0 0 0 0 0 0 0 0 0 0 0 127 0" result="hardAlpha"/>
<feMorphology radius="9.15954" operator="erode" in="SourceAlpha" result="effect1_dropShadow_14_3768"/>
<feOffset dy="15.2659"/>
<feGaussianBlur stdDeviation="25.5704"/>
<feComposite in2="hardAlpha" operator="out"/>
<feColorMatrix type="matrix" values="0 0 0 0 0 0 0 0 0 0 0 0 0 0 0 0 0 0 0.3 0"/>
<feBlend mode="normal" in2="BackgroundImageFix" result="effect1_dropShadow_14_3768"/>
<feBlend mode="normal" in="SourceGraphic" in2="effect1_dropShadow_14_3768" result="shape"/>
</filter>
<clipPath id="clip0_14_3768">
<rect width="378" height="314" rx="30" fill="white"/>
</clipPath>
</defs>
</svg>
