<svg width="587" height="798" viewBox="0 0 587 798" fill="none" xmlns="http://www.w3.org/2000/svg">
<path d="M241.793 -10L318 78.3799L1 153" stroke="#202027" stroke-linecap="round"/>
<path d="M708.682 48.4063C718.111 51.0311 980.516 161.965 980.516 161.965L702.111 191.848L877.994 417.661L630.036 263.413L604.772 524.856L534.884 249.531L301.938 380.493L462.405 188.266L177.63 175.289L445.303 95.0268L246.404 -134.041L526.036 -2.49627L590.031 -256.31L618.768 -1.95158L873.48 -177.398L708.682 48.4063Z" fill="#BCEC30" stroke="#202027" stroke-miterlimit="10" stroke-linecap="round"/>
<path d="M232.082 254H356L214 433" stroke="#202027" stroke-linecap="round"/>
<path d="M372 458.046L485.76 379L591.882 797" stroke="#202027" stroke-linecap="round"/>
<path d="M450.159 468L394 526.765L474 594L450.159 468Z" fill="#BCEC30" stroke="#202027" stroke-linecap="round"/>
<path d="M492 663L526 787" stroke="#202027" stroke-linecap="round"/>
</svg>
