<svg width="160" height="155" viewBox="0 0 160 155" fill="none" xmlns="http://www.w3.org/2000/svg">
<rect width="160" height="155" fill="#A7ACB3"/>
<g id="Phone" clip-path="url(#clip0_1_2)">
<rect width="375" height="4540" transform="translate(-215)" fill="#E1FF8F"/>
<rect id="Rectangle 111002147" x="-214" width="376" height="700" fill="#E1FF8F"/>
<g id="Frame 2043683036">
<g id="Frame 2043683029">
<path id="&#208;&#148;&#208;&#190;&#208;&#177;&#209;&#128;&#208;&#190; &#208;&#191;&#208;&#190;&#208;&#182;&#208;&#176;&#208;&#187;&#208;&#190;&#208;&#178;&#208;&#176;&#209;&#130;&#209;&#140; &#226;&#128;&#168;&#208;&#189;&#208;&#176; &#208;&#188;&#208;&#190;&#208;&#185; &#209;&#129;&#208;&#176;&#208;&#185;&#209;&#130; &#208;&#188;&#208;&#184;&#208;&#189;&#208;&#184;-&#208;&#184;&#208;&#179;&#209;&#128;" d="M-63.14 180.72V191.8H-69.14V186H-88.9V191.8H-94.9L-94.86 180.72H-93.74C-92.06 180.667 -90.8733 179.44 -90.18 177.04C-89.4867 174.64 -89.06 171.213 -88.9 166.76L-88.58 158H-67.06V180.72H-63.14ZM-83.18 167.36C-83.3133 170.693 -83.5933 173.493 -84.02 175.76C-84.4467 178 -85.1 179.653 -85.98 180.72H-73.46V163.28H-83.06L-83.18 167.36ZM-49.4512 186.32C-51.7179 186.32 -53.7579 185.853 -55.5712 184.92C-57.3579 183.96 -58.7579 182.64 -59.7712 180.96C-60.7846 179.28 -61.2912 177.373 -61.2912 175.24C-61.2912 173.107 -60.7846 171.2 -59.7712 169.52C-58.7579 167.84 -57.3579 166.533 -55.5712 165.6C-53.7579 164.64 -51.7179 164.16 -49.4512 164.16C-47.1846 164.16 -45.1579 164.64 -43.3712 165.6C-41.5846 166.533 -40.1846 167.84 -39.1712 169.52C-38.1579 171.2 -37.6512 173.107 -37.6512 175.24C-37.6512 177.373 -38.1579 179.28 -39.1712 180.96C-40.1846 182.64 -41.5846 183.96 -43.3712 184.92C-45.1579 185.853 -47.1846 186.32 -49.4512 186.32ZM-49.4512 181.2C-47.8512 181.2 -46.5446 180.667 -45.5312 179.6C-44.4912 178.507 -43.9712 177.053 -43.9712 175.24C-43.9712 173.427 -44.4912 171.987 -45.5312 170.92C-46.5446 169.827 -47.8512 169.28 -49.4512 169.28C-51.0512 169.28 -52.3712 169.827 -53.4112 170.92C-54.4512 171.987 -54.9712 173.427 -54.9712 175.24C-54.9712 177.053 -54.4512 178.507 -53.4112 179.6C-52.3712 180.667 -51.0512 181.2 -49.4512 181.2ZM-20.9194 165.96C-18.866 165.96 -17.066 166.387 -15.5194 167.24C-13.9727 168.067 -12.786 169.24 -11.9594 170.76C-11.106 172.28 -10.6794 174.04 -10.6794 176.04C-10.6794 178.093 -11.186 179.92 -12.1994 181.52C-13.186 183.093 -14.5727 184.32 -16.3594 185.2C-18.146 186.053 -20.1727 186.48 -22.4394 186.48C-26.1994 186.48 -29.1594 185.28 -31.3194 182.88C-33.4527 180.453 -34.5194 176.907 -34.5194 172.24C-34.5194 167.92 -33.586 164.48 -31.7194 161.92C-29.826 159.333 -26.9327 157.64 -23.0394 156.84L-12.7994 154.8L-11.9594 160.16L-20.9994 161.96C-23.4527 162.44 -25.2794 163.24 -26.4794 164.36C-27.6527 165.48 -28.346 167.067 -28.5594 169.12C-27.626 168.107 -26.506 167.333 -25.1994 166.8C-23.8927 166.24 -22.466 165.96 -20.9194 165.96ZM-22.3994 181.64C-20.7994 181.64 -19.5194 181.12 -18.5594 180.08C-17.5727 179.04 -17.0794 177.72 -17.0794 176.12C-17.0794 174.493 -17.5727 173.2 -18.5594 172.24C-19.5194 171.28 -20.7994 170.8 -22.3994 170.8C-24.026 170.8 -25.3327 171.28 -26.3194 172.24C-27.306 173.2 -27.7994 174.493 -27.7994 176.12C-27.7994 177.747 -27.2927 179.08 -26.2794 180.12C-25.266 181.133 -23.9727 181.64 -22.3994 181.64ZM6.23469 164.16C8.23469 164.16 10.048 164.627 11.6747 165.56C13.328 166.467 14.6214 167.76 15.5547 169.44C16.488 171.093 16.9547 173.027 16.9547 175.24C16.9547 177.453 16.488 179.4 15.5547 181.08C14.6214 182.733 13.328 184.027 11.6747 184.96C10.048 185.867 8.23469 186.32 6.23469 186.32C3.48802 186.32 1.32802 185.453 -0.245312 183.72V193.76H-6.48531V164.48H-0.525312V166.96C1.02135 165.093 3.27469 164.16 6.23469 164.16ZM5.15469 181.2C6.75469 181.2 8.06135 180.667 9.07469 179.6C10.1147 178.507 10.6347 177.053 10.6347 175.24C10.6347 173.427 10.1147 171.987 9.07469 170.92C8.06135 169.827 6.75469 169.28 5.15469 169.28C3.55469 169.28 2.23469 169.827 1.19469 170.92C0.181355 171.987 -0.325312 173.427 -0.325312 175.24C-0.325312 177.053 0.181355 178.507 1.19469 179.6C2.23469 180.667 3.55469 181.2 5.15469 181.2ZM31.4081 186.32C29.1415 186.32 27.1015 185.853 25.2881 184.92C23.5015 183.96 22.1015 182.64 21.0881 180.96C20.0748 179.28 19.5681 177.373 19.5681 175.24C19.5681 173.107 20.0748 171.2 21.0881 169.52C22.1015 167.84 23.5015 166.533 25.2881 165.6C27.1015 164.64 29.1415 164.16 31.4081 164.16C33.6748 164.16 35.7015 164.64 37.4881 165.6C39.2748 166.533 40.6748 167.84 41.6881 169.52C42.7015 171.2 43.2081 173.107 43.2081 175.24C43.2081 177.373 42.7015 179.28 41.6881 180.96C40.6748 182.64 39.2748 183.96 37.4881 184.92C35.7015 185.853 33.6748 186.32 31.4081 186.32ZM31.4081 181.2C33.0081 181.2 34.3148 180.667 35.3281 179.6C36.3681 178.507 36.8881 177.053 36.8881 175.24C36.8881 173.427 36.3681 171.987 35.3281 170.92C34.3148 169.827 33.0081 169.28 31.4081 169.28C29.8081 169.28 28.4881 169.827 27.4481 170.92C26.4081 171.987 25.8881 173.427 25.8881 175.24C25.8881 177.053 26.4081 178.507 27.4481 179.6C28.4881 180.667 29.8081 181.2 31.4081 181.2ZM-137.077 213.48V235H-143.317V218.6H-152.277V235H-158.477V213.48H-137.077ZM-121.014 235.32C-123.28 235.32 -125.32 234.853 -127.134 233.92C-128.92 232.96 -130.32 231.64 -131.334 229.96C-132.347 228.28 -132.854 226.373 -132.854 224.24C-132.854 222.107 -132.347 220.2 -131.334 218.52C-130.32 216.84 -128.92 215.533 -127.134 214.6C-125.32 213.64 -123.28 213.16 -121.014 213.16C-118.747 213.16 -116.72 213.64 -114.934 214.6C-113.147 215.533 -111.747 216.84 -110.734 218.52C-109.72 220.2 -109.214 222.107 -109.214 224.24C-109.214 226.373 -109.72 228.28 -110.734 229.96C-111.747 231.64 -113.147 232.96 -114.934 233.92C-116.72 234.853 -118.747 235.32 -121.014 235.32ZM-121.014 230.2C-119.414 230.2 -118.107 229.667 -117.094 228.6C-116.054 227.507 -115.534 226.053 -115.534 224.24C-115.534 222.427 -116.054 220.987 -117.094 219.92C-118.107 218.827 -119.414 218.28 -121.014 218.28C-122.614 218.28 -123.934 218.827 -124.974 219.92C-126.014 220.987 -126.534 222.427 -126.534 224.24C-126.534 226.053 -126.014 227.507 -124.974 228.6C-123.934 229.667 -122.614 230.2 -121.014 230.2ZM-84.2659 226.84H-87.2659V235H-93.4259V226.84H-96.4259L-100.986 235H-108.346L-101.586 223.88L-107.866 213.48H-101.266L-96.5059 221.84H-93.4259V213.48H-87.2659V221.84H-84.2259L-79.4259 213.48H-72.8259L-79.1059 223.88L-72.3059 235H-79.7059L-84.2659 226.84ZM-61.0931 213.16C-57.7598 213.16 -55.1998 213.96 -53.4131 215.56C-51.6265 217.133 -50.7331 219.52 -50.7331 222.72V235H-56.5731V232.32C-57.7465 234.32 -59.9331 235.32 -63.1331 235.32C-64.7865 235.32 -66.2265 235.04 -67.4531 234.48C-68.6531 233.92 -69.5731 233.147 -70.2131 232.16C-70.8531 231.173 -71.1731 230.053 -71.1731 228.8C-71.1731 226.8 -70.4265 225.227 -68.9331 224.08C-67.4131 222.933 -65.0798 222.36 -61.9331 222.36H-56.9731C-56.9731 221 -57.3865 219.96 -58.2131 219.24C-59.0398 218.493 -60.2798 218.12 -61.9331 218.12C-63.0798 218.12 -64.2131 218.307 -65.3331 218.68C-66.4265 219.027 -67.3598 219.507 -68.1331 220.12L-70.3731 215.76C-69.1998 214.933 -67.7998 214.293 -66.1731 213.84C-64.5198 213.387 -62.8265 213.16 -61.0931 213.16ZM-61.5731 231.12C-60.5065 231.12 -59.5598 230.88 -58.7331 230.4C-57.9065 229.893 -57.3198 229.16 -56.9731 228.2V226H-61.2531C-63.8131 226 -65.0931 226.84 -65.0931 228.52C-65.0931 229.32 -64.7865 229.96 -64.1731 230.44C-63.5331 230.893 -62.6665 231.12 -61.5731 231.12ZM-24.6725 213.48V235H-30.9125V218.6H-37.7125L-37.9125 222.4C-38.0192 225.227 -38.2858 227.573 -38.7125 229.44C-39.1392 231.307 -39.8325 232.773 -40.7925 233.84C-41.7525 234.907 -43.0858 235.44 -44.7925 235.44C-45.6992 235.44 -46.7792 235.28 -48.0325 234.96L-47.7125 229.84C-47.2858 229.893 -46.9792 229.92 -46.7925 229.92C-45.8592 229.92 -45.1658 229.587 -44.7125 228.92C-44.2325 228.227 -43.9125 227.36 -43.7525 226.32C-43.5925 225.253 -43.4725 223.853 -43.3925 222.12L-43.0725 213.48H-24.6725ZM-8.59187 235.32C-10.8585 235.32 -12.8985 234.853 -14.7119 233.92C-16.4985 232.96 -17.8985 231.64 -18.9119 229.96C-19.9252 228.28 -20.4319 226.373 -20.4319 224.24C-20.4319 222.107 -19.9252 220.2 -18.9119 218.52C-17.8985 216.84 -16.4985 215.533 -14.7119 214.6C-12.8985 213.64 -10.8585 213.16 -8.59187 213.16C-6.32521 213.16 -4.29854 213.64 -2.51187 214.6C-0.725208 215.533 0.674792 216.84 1.68813 218.52C2.70146 220.2 3.20813 222.107 3.20813 224.24C3.20813 226.373 2.70146 228.28 1.68813 229.96C0.674792 231.64 -0.725208 232.96 -2.51187 233.92C-4.29854 234.853 -6.32521 235.32 -8.59187 235.32ZM-8.59187 230.2C-6.99187 230.2 -5.68521 229.667 -4.67187 228.6C-3.63187 227.507 -3.11187 226.053 -3.11187 224.24C-3.11187 222.427 -3.63187 220.987 -4.67187 219.92C-5.68521 218.827 -6.99187 218.28 -8.59187 218.28C-10.1919 218.28 -11.5119 218.827 -12.5519 219.92C-13.5919 220.987 -14.1119 222.427 -14.1119 224.24C-14.1119 226.053 -13.5919 227.507 -12.5519 228.6C-11.5119 229.667 -10.1919 230.2 -8.59187 230.2ZM23.94 223.76C26.4733 224.613 27.74 226.32 27.74 228.88C27.74 230.827 27.0067 232.333 25.54 233.4C24.0733 234.467 21.8867 235 18.98 235H7.5V213.48H18.5C21.1933 213.48 23.3 213.973 24.82 214.96C26.34 215.92 27.1 217.28 27.1 219.04C27.1 220.107 26.82 221.053 26.26 221.88C25.7267 222.68 24.9533 223.307 23.94 223.76ZM13.22 222.32H17.94C20.1267 222.32 21.22 221.547 21.22 220C21.22 218.48 20.1267 217.72 17.94 217.72H13.22V222.32ZM18.46 230.76C20.7533 230.76 21.9 229.973 21.9 228.4C21.9 227.573 21.6333 226.973 21.1 226.6C20.5667 226.2 19.7267 226 18.58 226H13.22V230.76H18.46ZM40.7428 213.16C44.0761 213.16 46.6361 213.96 48.4228 215.56C50.2095 217.133 51.1028 219.52 51.1028 222.72V235H45.2628V232.32C44.0895 234.32 41.9028 235.32 38.7028 235.32C37.0495 235.32 35.6095 235.04 34.3828 234.48C33.1828 233.92 32.2628 233.147 31.6228 232.16C30.9828 231.173 30.6628 230.053 30.6628 228.8C30.6628 226.8 31.4095 225.227 32.9028 224.08C34.4228 222.933 36.7561 222.36 39.9028 222.36H44.8628C44.8628 221 44.4495 219.96 43.6228 219.24C42.7961 218.493 41.5561 218.12 39.9028 218.12C38.7561 218.12 37.6228 218.307 36.5028 218.68C35.4095 219.027 34.4761 219.507 33.7028 220.12L31.4628 215.76C32.6361 214.933 34.0361 214.293 35.6628 213.84C37.3161 213.387 39.0095 213.16 40.7428 213.16ZM40.2628 231.12C41.3295 231.12 42.2761 230.88 43.1028 230.4C43.9295 229.893 44.5161 229.16 44.8628 228.2V226H40.5828C38.0228 226 36.7428 226.84 36.7428 228.52C36.7428 229.32 37.0495 229.96 37.6628 230.44C38.3028 230.893 39.1695 231.12 40.2628 231.12ZM74.6034 218.6H67.3234V235H61.1234V218.6H53.8434V213.48H74.6034V218.6ZM89.5697 220.36C92.3697 220.387 94.5164 221.027 96.0097 222.28C97.503 223.507 98.2497 225.253 98.2497 227.52C98.2497 229.893 97.4097 231.747 95.7297 233.08C94.0764 234.387 91.743 235.04 88.7297 235.04L77.9297 235V213.48H84.1297V220.36H89.5697ZM88.1697 230.6C89.3697 230.627 90.2897 230.373 90.9297 229.84C91.5697 229.307 91.8897 228.507 91.8897 227.44C91.8897 226.4 91.5697 225.64 90.9297 225.16C90.3164 224.68 89.3964 224.427 88.1697 224.4L84.1297 224.36V230.6H88.1697ZM-152.187 262.48H-145.987V270.88H-136.627V262.48H-130.387V284H-136.627V275.96H-145.987V284H-152.187V262.48ZM-116.054 262.16C-112.721 262.16 -110.161 262.96 -108.374 264.56C-106.587 266.133 -105.694 268.52 -105.694 271.72V284H-111.534V281.32C-112.707 283.32 -114.894 284.32 -118.094 284.32C-119.747 284.32 -121.187 284.04 -122.414 283.48C-123.614 282.92 -124.534 282.147 -125.174 281.16C-125.814 280.173 -126.134 279.053 -126.134 277.8C-126.134 275.8 -125.387 274.227 -123.894 273.08C-122.374 271.933 -120.041 271.36 -116.894 271.36H-111.934C-111.934 270 -112.347 268.96 -113.174 268.24C-114.001 267.493 -115.241 267.12 -116.894 267.12C-118.041 267.12 -119.174 267.307 -120.294 267.68C-121.387 268.027 -122.321 268.507 -123.094 269.12L-125.334 264.76C-124.161 263.933 -122.761 263.293 -121.134 262.84C-119.481 262.387 -117.787 262.16 -116.054 262.16ZM-116.534 280.12C-115.467 280.12 -114.521 279.88 -113.694 279.4C-112.867 278.893 -112.281 278.16 -111.934 277.2V275H-116.214C-118.774 275 -120.054 275.84 -120.054 277.52C-120.054 278.32 -119.747 278.96 -119.134 279.44C-118.494 279.893 -117.627 280.12 -116.534 280.12ZM-67.9453 284V271.12L-74.3853 281.92H-77.0253L-83.3053 271.08V284H-88.9453V262.48H-82.4253L-75.5453 274.92L-68.2253 262.48H-62.3853L-62.3053 284H-67.9453ZM-46.2481 284.32C-48.5148 284.32 -50.5548 283.853 -52.3681 282.92C-54.1548 281.96 -55.5548 280.64 -56.5681 278.96C-57.5815 277.28 -58.0881 275.373 -58.0881 273.24C-58.0881 271.107 -57.5815 269.2 -56.5681 267.52C-55.5548 265.84 -54.1548 264.533 -52.3681 263.6C-50.5548 262.64 -48.5148 262.16 -46.2481 262.16C-43.9815 262.16 -41.9548 262.64 -40.1681 263.6C-38.3815 264.533 -36.9815 265.84 -35.9681 267.52C-34.9548 269.2 -34.4481 271.107 -34.4481 273.24C-34.4481 275.373 -34.9548 277.28 -35.9681 278.96C-36.9815 280.64 -38.3815 281.96 -40.1681 282.92C-41.9548 283.853 -43.9815 284.32 -46.2481 284.32ZM-46.2481 279.2C-44.6481 279.2 -43.3415 278.667 -42.3281 277.6C-41.2881 276.507 -40.7681 275.053 -40.7681 273.24C-40.7681 271.427 -41.2881 269.987 -42.3281 268.92C-43.3415 267.827 -44.6481 267.28 -46.2481 267.28C-47.8481 267.28 -49.1681 267.827 -50.2081 268.92C-51.2481 269.987 -51.7681 271.427 -51.7681 273.24C-51.7681 275.053 -51.2481 276.507 -50.2081 277.6C-49.1681 278.667 -47.8481 279.2 -46.2481 279.2ZM-30.1562 262.48H-23.9562V275.28L-13.4762 262.48H-7.75625V284H-13.9562V271.2L-24.3962 284H-30.1562V262.48ZM-19.3562 260.16C-24.0496 260.16 -26.4096 258.093 -26.4362 253.96H-22.3562C-22.3296 254.893 -22.0762 255.627 -21.5962 256.16C-21.0896 256.667 -20.3562 256.92 -19.3962 256.92C-18.4362 256.92 -17.7029 256.667 -17.1962 256.16C-16.6629 255.627 -16.3962 254.893 -16.3962 253.96H-12.2362C-12.2629 258.093 -14.6362 260.16 -19.3562 260.16ZM19.8103 284.32C17.517 284.32 15.4503 283.853 13.6103 282.92C11.797 281.96 10.3703 280.64 9.33031 278.96C8.31698 277.28 7.81031 275.373 7.81031 273.24C7.81031 271.107 8.31698 269.2 9.33031 267.52C10.3703 265.84 11.797 264.533 13.6103 263.6C15.4503 262.64 17.517 262.16 19.8103 262.16C22.077 262.16 24.0503 262.64 25.7303 263.6C27.437 264.533 28.677 265.88 29.4503 267.64L24.6103 270.24C23.4903 268.267 21.877 267.28 19.7703 267.28C18.1436 267.28 16.797 267.813 15.7303 268.88C14.6636 269.947 14.1303 271.4 14.1303 273.24C14.1303 275.08 14.6636 276.533 15.7303 277.6C16.797 278.667 18.1436 279.2 19.7703 279.2C21.9036 279.2 23.517 278.213 24.6103 276.24L29.4503 278.88C28.677 280.587 27.437 281.92 25.7303 282.88C24.0503 283.84 22.077 284.32 19.8103 284.32ZM41.6022 262.16C44.9355 262.16 47.4955 262.96 49.2822 264.56C51.0689 266.133 51.9622 268.52 51.9622 271.72V284H46.1222V281.32C44.9489 283.32 42.7622 284.32 39.5622 284.32C37.9089 284.32 36.4689 284.04 35.2422 283.48C34.0422 282.92 33.1222 282.147 32.4822 281.16C31.8422 280.173 31.5222 279.053 31.5222 277.8C31.5222 275.8 32.2689 274.227 33.7622 273.08C35.2822 271.933 37.6155 271.36 40.7622 271.36H45.7222C45.7222 270 45.3089 268.96 44.4822 268.24C43.6555 267.493 42.4155 267.12 40.7622 267.12C39.6155 267.12 38.4822 267.307 37.3622 267.68C36.2689 268.027 35.3355 268.507 34.5622 269.12L32.3222 264.76C33.4955 263.933 34.8955 263.293 36.5222 262.84C38.1755 262.387 39.8689 262.16 41.6022 262.16ZM41.1222 280.12C42.1889 280.12 43.1355 279.88 43.9622 279.4C44.7889 278.893 45.3755 278.16 45.7222 277.2V275H41.4422C38.8822 275 37.6022 275.84 37.6022 277.52C37.6022 278.32 37.9089 278.96 38.5222 279.44C39.1622 279.893 40.0289 280.12 41.1222 280.12ZM57.3828 262.48H63.5828V275.28L74.0628 262.48H79.7828V284H73.5828V271.2L63.1428 284H57.3828V262.48ZM68.1828 260.16C63.4895 260.16 61.1295 258.093 61.1028 253.96H65.1828C65.2095 254.893 65.4628 255.627 65.9428 256.16C66.4495 256.667 67.1828 256.92 68.1428 256.92C69.1028 256.92 69.8361 256.667 70.3428 256.16C70.8761 255.627 71.1428 254.893 71.1428 253.96H75.3028C75.2761 258.093 72.9028 260.16 68.1828 260.16ZM103.861 267.6H96.5813V284H90.3813V267.6H83.1013V262.48H103.861V267.6ZM-106.168 333V320.12L-112.608 330.92H-115.248L-121.528 320.08V333H-127.168V311.48H-120.648L-113.768 323.92L-106.448 311.48H-100.608L-100.528 333H-106.168ZM-94.5508 311.48H-88.3508V324.28L-77.8708 311.48H-72.1508V333H-78.3508V320.2L-88.7908 333H-94.5508V311.48ZM-66.1523 311.48H-59.9523V319.88H-50.5923V311.48H-44.3523V333H-50.5923V324.96H-59.9523V333H-66.1523V311.48ZM-38.3789 311.48H-32.1789V324.28L-21.6989 311.48H-15.9789V333H-22.1789V320.2L-32.6189 333H-38.3789V311.48ZM-10.9005 319.24H0.419532V324.24H-10.9005V319.24ZM5.44922 311.48H11.6492V324.28L22.1292 311.48H27.8492V333H21.6492V320.2L11.2092 333H5.44922V311.48ZM51.0877 316.6H40.0477V333H33.8477V311.48H51.0877V316.6ZM67.0745 311.16C69.0745 311.16 70.8879 311.627 72.5145 312.56C74.1679 313.467 75.4612 314.76 76.3945 316.44C77.3279 318.093 77.7945 320.027 77.7945 322.24C77.7945 324.453 77.3279 326.4 76.3945 328.08C75.4612 329.733 74.1679 331.027 72.5145 331.96C70.8879 332.867 69.0745 333.32 67.0745 333.32C64.3279 333.32 62.1679 332.453 60.5945 330.72V340.76H54.3545V311.48H60.3145V313.96C61.8612 312.093 64.1145 311.16 67.0745 311.16ZM65.9945 328.2C67.5945 328.2 68.9012 327.667 69.9145 326.6C70.9545 325.507 71.4745 324.053 71.4745 322.24C71.4745 320.427 70.9545 318.987 69.9145 317.92C68.9012 316.827 67.5945 316.28 65.9945 316.28C64.3945 316.28 63.0745 316.827 62.0345 317.92C61.0212 318.987 60.5145 320.427 60.5145 322.24C60.5145 324.053 61.0212 325.507 62.0345 326.6C63.0745 327.667 64.3945 328.2 65.9945 328.2Z" fill="#202027"/>
</g>
</g>
<path id="Vector" d="M164.226 10.1084C167.072 10.8901 246.284 43.9262 246.284 43.9262L162.242 52.8254L215.335 120.072L140.485 74.1373L132.858 151.995L111.761 70.0034L41.4419 109.004L89.8822 51.7587L3.91711 47.8942L84.7193 23.992L24.6779 -44.2245L109.09 -5.05042L128.408 -80.6362L137.083 -4.88821L213.973 -57.1361L164.226 10.1084Z" fill="#BCEC30" stroke="#202027" stroke-miterlimit="10" stroke-linecap="round"/>
</g>
<defs>
<clipPath id="clip0_1_2">
<rect width="375" height="4540" fill="white" transform="translate(-215)"/>
</clipPath>
</defs>
</svg>
